<?xml version="1.0" encoding="utf-8"?>
<!-- Generator: Adobe Illustrator 14.0.0, SVG Export Plug-In . SVG Version: 6.00 Build 43363)  -->
<!DOCTYPE svg PUBLIC "-//W3C//DTD SVG 1.1//EN" "http://www.w3.org/Graphics/SVG/1.1/DTD/svg11.dtd">
<svg version="1.1" xmlns="http://www.w3.org/2000/svg" xmlns:xlink="http://www.w3.org/1999/xlink" x="0px" y="0px" width="64px"
	 height="64px" viewBox="0 0 64 64" enable-background="new 0 0 64 64" xml:space="preserve">
<g id="Calque_2" display="none">
	<rect display="inline" width="64" height="64"/>
</g>
<g id="Calque_1" display="none">
	<g display="inline">
		<polygon id="XMLID_23_" fill="#B3B2B3" points="31.903,0 1.792,10.597 6.55,50.047 31.936,64 57.45,49.857 62.208,10.409 		"/>
		<polygon id="XMLID_24_" fill="#A4161C" points="59.204,12.689 31.833,3.354 31.833,60.666 54.771,47.971 		"/>
		<polygon id="XMLID_25_" fill="#DB1D1A" points="5.17,12.857 9.248,48.14 31.833,60.666 31.833,3.354 		"/>
		<path id="XMLID_28_" fill="#F2F1F1" d="M39.367,33.864l-7.534,3.522h-7.941l-3.733,9.338l-6.943,0.128L31.833,5.437L39.367,33.864
			z M38.639,32.091l-6.756-13.375L26.341,31.86h5.492L38.639,32.091z"/>
		<polygon id="XMLID_29_" fill="#B3B2B3" points="31.833,5.437 31.882,18.716 38.17,31.871 31.847,31.871 31.833,37.379 
			40.576,37.387 44.664,46.854 51.308,46.978 		"/>
	</g>
</g>
<g id="Calque_1_-_copie">
	<g>
		<path fill="#FFFFFF" d="M31.903,0L1.792,10.597l4.758,39.45L31.936,64L57.45,49.857l4.758-39.448L31.903,0z M54.771,47.971
			L31.833,60.666v-0.004l0,0.004L9.248,48.14L5.17,12.857l26.663-9.503l27.371,9.335L54.771,47.971z"/>
		<polygon fill="none" points="31.833,3.354 5.17,12.857 9.248,48.14 31.833,60.666 31.833,60.662 31.833,60.666 54.771,47.971 
			59.204,12.689 		"/>
		<path fill="#FFFFFF" d="M31.833,5.439l0-0.002v0l0,0v0.001L13.215,46.853l6.943-0.128l3.733-9.338h7.941l0.017-0.008l8.727,0.008
			l4.088,9.468l6.644,0.123L31.833,5.439z M31.883,18.716l6.287,13.155h-6.02l-0.317-0.011h-5.492L31.883,18.716z"/>
	</g>
</g>
</svg>
