<?xml version="1.0" encoding="utf-8"?>
<!-- Generator: Adobe Illustrator 14.0.0, SVG Export Plug-In . SVG Version: 6.00 Build 43363)  -->
<!DOCTYPE svg PUBLIC "-//W3C//DTD SVG 1.1//EN" "http://www.w3.org/Graphics/SVG/1.1/DTD/svg11.dtd">
<svg version="1.1" xmlns="http://www.w3.org/2000/svg" xmlns:xlink="http://www.w3.org/1999/xlink" x="0px" y="0px" width="64px"
	 height="64px" viewBox="0 0 64 64" enable-background="new 0 0 64 64" xml:space="preserve">
<g id="Calque_2" display="none">
	<rect display="inline" fill="#FFFFFF" width="64" height="64"/>
</g>
<g id="Calque_1">
	<g>
		<polygon id="XMLID_23_" fill="#B4B4B4" points="31.903,0 1.792,10.597 6.55,50.047 31.936,64 57.45,49.857 62.208,10.409 		"/>
		<polygon id="XMLID_24_" fill="#A6181C" points="59.204,12.689 31.833,3.354 31.833,60.666 54.771,47.971 		"/>
		<polygon id="XMLID_25_" fill="#DC1F1A" points="5.17,12.857 9.248,48.14 31.833,60.666 31.833,3.354 		"/>
		<path id="XMLID_28_" fill="#F3F2F2" d="M39.367,33.864l-7.534,3.522h-7.941l-3.733,9.338l-6.943,0.128L31.833,5.437L39.367,33.864
			z M38.639,32.091l-6.756-13.375L26.341,31.86h5.492L38.639,32.091z"/>
		<polygon id="XMLID_29_" fill="#B4B4B4" points="31.833,5.437 31.882,18.716 38.17,31.871 31.847,31.871 31.833,37.379 
			40.576,37.387 44.664,46.854 51.308,46.978 		"/>
	</g>
</g>
</svg>
