<?xml version="1.0" encoding="utf-8"?>
<!-- Generator: Adobe Illustrator 14.0.0, SVG Export Plug-In . SVG Version: 6.00 Build 43363)  -->
<!DOCTYPE svg PUBLIC "-//W3C//DTD SVG 1.1//EN" "http://www.w3.org/Graphics/SVG/1.1/DTD/svg11.dtd">
<svg version="1.1" xmlns="http://www.w3.org/2000/svg" xmlns:xlink="http://www.w3.org/1999/xlink" x="0px" y="0px" width="64px"
	 height="64px" viewBox="0 0 64 64" enable-background="new 0 0 64 64" xml:space="preserve">
<g id="Calque_2_1_" display="none">
	<rect display="inline" fill="#1A171B" width="64" height="64"/>
</g>
<g id="Calque_1">
	<g id="Calque_2" display="none">
		<rect display="inline" fill="#FFFFFF" width="64" height="64"/>
	</g>
	<g>
		<path id="XMLID_3_" fill="#994991" d="M60.469,18.816c0-1.076-0.23-2.027-0.696-2.843c-0.457-0.803-1.142-1.476-2.06-2.007
			C50.132,9.595,42.544,5.237,34.966,0.861c-2.043-1.179-4.024-1.136-6.052,0.06c-3.018,1.78-18.125,10.435-22.626,13.042
			c-1.854,1.073-2.756,2.716-2.756,4.851c-0.003,8.791,0,17.582-0.003,26.372c0,1.053,0.221,1.985,0.666,2.789
			c0.458,0.827,1.152,1.518,2.091,2.062c4.502,2.607,19.611,11.263,22.627,13.042c2.029,1.197,4.01,1.24,6.053,0.061
			c7.579-4.376,15.167-8.733,22.749-13.104c0.939-0.544,1.634-1.235,2.092-2.062c0.444-0.804,0.665-1.736,0.665-2.789
			C60.472,45.184,60.472,27.607,60.469,18.816"/>
		<path id="XMLID_4_" fill="#6A2175" d="M32.087,31.914L4.194,47.975c0.458,0.827,1.152,1.518,2.091,2.062
			c4.502,2.607,19.611,11.263,22.627,13.042c2.029,1.197,4.01,1.24,6.053,0.061c7.579-4.376,15.167-8.733,22.749-13.104
			c0.939-0.544,1.634-1.235,2.092-2.062L32.087,31.914"/>
		<path id="XMLID_5_" fill="#6A2175" d="M23.825,36.672c1.624,2.833,4.675,4.744,8.175,4.744c3.521,0,6.591-1.936,8.205-4.799
			l-8.118-4.703L23.825,36.672"/>
		<path id="XMLID_6_" fill="#803083" d="M60.469,18.816c0-1.076-0.23-2.027-0.696-2.843L32.087,31.914l27.72,16.059
			c0.444-0.804,0.665-1.736,0.665-2.789C60.472,45.184,60.472,27.607,60.469,18.816"/>
		<path id="XMLID_9_" fill="#FFFFFF" d="M40.205,36.617c-1.614,2.863-4.684,4.799-8.205,4.799c-3.5,0-6.551-1.911-8.175-4.744
			C23.037,35.295,22.583,33.7,22.583,32c0-5.201,4.216-9.417,9.417-9.417c3.478,0,6.513,1.888,8.144,4.692l8.23-4.739
			C45.104,16.889,38.995,13.09,32,13.09c-10.444,0-18.91,8.466-18.91,18.91c0,3.426,0.912,6.639,2.504,9.41
			c3.263,5.677,9.388,9.5,16.406,9.5c7.03,0,13.165-3.838,16.424-9.531L40.205,36.617"/>
		<g id="XMLID_32_">
			<rect id="XMLID_1_" x="48.735" y="27.529" fill="#FFFFFF" width="1.87" height="9.059"/>
			<rect id="XMLID_30_" x="52.885" y="27.529" fill="#FFFFFF" width="1.87" height="9.059"/>
			<rect id="XMLID_31_" x="47.215" y="29.048" fill="#FFFFFF" width="9.06" height="1.871"/>
			<rect id="XMLID_23_" x="47.215" y="33.198" fill="#FFFFFF" width="9.06" height="1.87"/>
		</g>
	</g>
</g>
</svg>
