<?xml version="1.0" encoding="utf-8"?>
<!-- Generator: Adobe Illustrator 14.0.0, SVG Export Plug-In . SVG Version: 6.00 Build 43363)  -->
<!DOCTYPE svg PUBLIC "-//W3C//DTD SVG 1.1//EN" "http://www.w3.org/Graphics/SVG/1.1/DTD/svg11.dtd">
<svg version="1.1" xmlns="http://www.w3.org/2000/svg" xmlns:xlink="http://www.w3.org/1999/xlink" x="0px" y="0px" width="64px"
	 height="64px" viewBox="0 0 64 64" enable-background="new 0 0 64 64" xml:space="preserve">
<g id="Calque_2_1_" display="none">
	<rect display="inline" fill="#1A171B" width="64" height="64"/>
</g>
<g id="Calque_1" display="none">
	<g display="inline">
		<polygon fill="#0D5AA2" points="50.56,59.002 32,64 13.438,59.002 9.156,12.601 54.844,12.601 		"/>
		<polygon fill="#449CD1" points="31.999,16.359 31.999,60.014 32.041,60.025 47.062,55.98 50.528,16.359 		"/>
		<g>
			<polygon fill="#1A171B" points="21.466,5.784 21.466,3.022 25.495,3.022 25.495,0 18.443,0 18.443,8.542 25.495,8.542 
				25.495,5.784 			"/>
			<path fill="#1A171B" d="M32.744,3.022h2.816V0h-7.052c0,0,0,1.517,0,3.022c0.943,0.944,1.436,1.395,2.8,2.76
				c-0.798,0-2.8,0.003-2.8,0.002v2.757h7.052V5.784L32.744,3.022z"/>
			<path fill="#1A171B" d="M42.738,3.022h2.817V0h-7.053c0,0,0,1.517,0,3.022c0.943,0.944,1.436,1.395,2.801,2.76
				c-0.798,0-2.801,0.003-2.801,0.002v2.757h7.053V5.784L42.738,3.022z"/>
		</g>
		<g>
			<polygon fill="#FFFFFF" points="31.983,27.962 18.698,33.494 19.139,38.973 31.983,33.48 45.645,27.639 46.212,22.036 			"/>
			<linearGradient id="SVGID_1_" gradientUnits="userSpaceOnUse" x1="25.3408" y1="38.9727" x2="25.3408" y2="27.9624">
				<stop  offset="0.3865" style="stop-color:#D8D9DA;stop-opacity:0"/>
				<stop  offset="1" style="stop-color:#D8D9DA"/>
			</linearGradient>
			<polygon fill="url(#SVGID_1_)" points="18.698,33.494 19.139,38.973 31.983,33.48 31.983,27.962 			"/>
			<linearGradient id="SVGID_2_" gradientUnits="userSpaceOnUse" x1="39.0977" y1="33.4805" x2="39.0977" y2="22.0361">
				<stop  offset="0.3865" style="stop-color:#D8D9DA;stop-opacity:0"/>
				<stop  offset="1" style="stop-color:#D8D9DA"/>
			</linearGradient>
			<polygon fill="url(#SVGID_2_)" points="46.212,22.036 31.983,27.962 31.983,33.48 45.645,27.639 			"/>
			<linearGradient id="SVGID_3_" gradientUnits="userSpaceOnUse" x1="18.7188" y1="43.8828" x2="45.1621" y2="43.8828">
				<stop  offset="0" style="stop-color:#EEEDEB"/>
				<stop  offset="1" style="stop-color:#FFFFFF"/>
			</linearGradient>
			<polygon fill="url(#SVGID_3_)" points="18.719,33.494 19.159,38.973 38.866,39.035 38.426,46.338 31.941,48.164 25.707,46.59 
				25.329,42.057 19.537,42.057 20.293,50.809 32.004,54.271 43.651,50.871 45.162,33.494 			"/>
			<g opacity="0.05">
				<polygon fill="#1A171B" points="31.983,33.494 18.698,33.494 19.139,38.973 31.983,39.014 				"/>
				<polygon fill="#1A171B" points="31.983,48.146 31.92,48.164 25.687,46.59 25.31,42.057 19.517,42.057 20.272,50.809 
					31.983,54.271 				"/>
			</g>
			<linearGradient id="SVGID_4_" gradientUnits="userSpaceOnUse" x1="17.502" y1="24.8374" x2="46.2119" y2="24.8374">
				<stop  offset="0" style="stop-color:#EEEDEB"/>
				<stop  offset="1" style="stop-color:#FFFFFF"/>
			</linearGradient>
			<polygon fill="url(#SVGID_4_)" points="17.502,22.036 46.212,22.036 45.645,27.639 18.194,27.639 			"/>
			<polygon opacity="0.05" fill="#1A171B" points="31.983,22.036 17.502,22.036 18.194,27.639 31.983,27.639 			"/>
		</g>
	</g>
</g>
<g id="Calque_1_-_copie">
	<g>
		<polygon fill="#FFFFFF" points="21.466,5.784 21.466,3.022 25.495,3.022 25.495,0 18.443,0 18.443,8.542 25.495,8.542 
			25.495,5.784 		"/>
		<path fill="#FFFFFF" d="M32.744,3.022h2.816V0h-7.052c0,0,0,1.517,0,3.022c0.943,0.944,1.436,1.395,2.8,2.76
			c-0.798,0-2.8,0.003-2.8,0.002v2.757h7.052V5.784L32.744,3.022z"/>
		<path fill="#FFFFFF" d="M42.738,3.022h2.817V0h-7.053c0,0,0,1.517,0,3.022c0.943,0.944,1.436,1.395,2.801,2.76
			c-0.798,0-2.801,0.003-2.801,0.002v2.757h7.053V5.784L42.738,3.022z"/>
	</g>
	<path fill="#FFFFFF" d="M50.56,59.002L32,64l-18.562-4.998L9.156,12.601h45.688L50.56,59.002z M45.645,27.639l0.567-5.604H31.983
		H17.502l0.692,5.604h13.789h0.774l-0.774,0.323l-13.285,5.532l0.44,5.479l12.845,0.041l0,0l6.883,0.021l-0.44,7.303l-6.442,1.814
		v-0.006l-0.053,0.015l-6.223-1.571l-0.378-4.533h-0.02h-5.772h-0.021l0.756,8.752l11.711,3.463v-0.006l0.021,0.006l11.647-3.4
		l1.511-17.377H31.983h-0.032l0.032-0.014L45.645,27.639z"/>
</g>
</svg>
