<?xml version="1.0" encoding="UTF-8" standalone="no"?><!DOCTYPE svg PUBLIC "-//W3C//DTD SVG 1.1//EN" "http://www.w3.org/Graphics/SVG/1.1/DTD/svg11.dtd"><svg width="100%" height="100%" viewBox="0 0 64 64" version="1.1" xmlns="http://www.w3.org/2000/svg" xmlns:xlink="http://www.w3.org/1999/xlink" xml:space="preserve" xmlns:serif="http://www.serif.com/" style="fill-rule:evenodd;clip-rule:evenodd;stroke-linejoin:round;stroke-miterlimit:2;"><path d="M62.793,29.149l-27.943,-27.941c-1.609,-1.61 -4.219,-1.61 -5.829,0l-5.803,5.802l7.361,7.361c1.71,-0.578 3.672,-0.19 5.035,1.174c1.371,1.371 1.756,3.35 1.163,5.067l7.095,7.093c1.716,-0.591 3.695,-0.209 5.067,1.164c1.915,1.915 1.915,5.019 0,6.936c-1.917,1.916 -5.021,1.916 -6.938,0c-1.441,-1.443 -1.797,-3.56 -1.067,-5.335l-6.616,-6.616l0,17.41c0.466,0.232 0.907,0.54 1.296,0.928c1.915,1.915 1.915,5.018 0,6.937c-1.915,1.914 -5.021,1.914 -6.935,0c-1.916,-1.919 -1.916,-5.022 0,-6.937c0.473,-0.473 1.022,-0.831 1.607,-1.07l0,-17.572c-0.585,-0.239 -1.132,-0.594 -1.607,-1.07c-1.451,-1.45 -1.8,-3.58 -1.055,-5.361l-7.257,-7.258l-19.16,19.159c-1.609,1.611 -1.609,4.221 0,5.83l27.944,27.943c1.609,1.609 4.218,1.609 5.829,0l27.813,-27.812c1.609,-1.611 1.609,-4.222 0,-5.832Z" style="fill:#fff;fill-rule:nonzero;"/></svg>