<?xml version="1.0" encoding="utf-8"?>
<!-- Generator: Adobe Illustrator 14.0.0, SVG Export Plug-In . SVG Version: 6.00 Build 43363)  -->
<!DOCTYPE svg PUBLIC "-//W3C//DTD SVG 1.1//EN" "http://www.w3.org/Graphics/SVG/1.1/DTD/svg11.dtd">
<svg version="1.1" id="Calque_1" xmlns="http://www.w3.org/2000/svg" xmlns:xlink="http://www.w3.org/1999/xlink" x="0px" y="0px"
	 width="64px" height="64px" viewBox="0 0 64 64" enable-background="new 0 0 64 64" xml:space="preserve">
<path fill="#FFFFFF" d="M0,4.585C0,2.054,2.118,0,4.729,0h54.542C61.883,0,64,2.054,64,4.585v54.831C64,61.948,61.883,64,59.271,64
	H4.729C2.118,64,0,61.948,0,59.416V4.585z M19.4,53.575V24.676H9.733v28.899H19.4z M14.567,20.73c3.37,0,5.469-2.219,5.469-4.993
	c-0.063-2.836-2.099-4.993-5.404-4.993c-3.309,0-5.469,2.157-5.469,4.993c0,2.773,2.097,4.993,5.342,4.993H14.567L14.567,20.73z
	 M24.75,53.575h9.667V37.438c0-0.864,0.062-1.728,0.318-2.345c0.697-1.727,2.288-3.513,4.959-3.513c3.497,0,4.896,2.65,4.896,6.535
	v15.461h9.665V37.004c0-8.876-4.768-13.006-11.128-13.006c-5.215,0-7.505,2.896-8.776,4.869h0.065v-4.191H24.75
	C24.877,27.387,24.75,53.575,24.75,53.575L24.75,53.575z"/>
</svg>
