<?xml version="1.0" encoding="utf-8"?>
<!-- Generator: Adobe Illustrator 14.0.0, SVG Export Plug-In . SVG Version: 6.00 Build 43363)  -->
<!DOCTYPE svg PUBLIC "-//W3C//DTD SVG 1.1//EN" "http://www.w3.org/Graphics/SVG/1.1/DTD/svg11.dtd">
<svg version="1.1" xmlns="http://www.w3.org/2000/svg" xmlns:xlink="http://www.w3.org/1999/xlink" x="0px" y="0px" width="64px"
	 height="64px" viewBox="0 0 64 64" enable-background="new 0 0 64 64" xml:space="preserve">
<g id="Calque_2" display="none">
	<rect display="inline" fill="#FFFFFF" width="64" height="64"/>
</g>
<g id="Calque_1">
	<g>
		<path fill="#FFFFFF" d="M33.456,64l-1.703-0.583c0,0,0.208-8.685-2.91-9.309c-2.077-2.41,0.333-102.233,7.814-0.332
			c0,0-2.577,1.287-3.034,3.49C33.124,59.428,33.456,64,33.456,64L33.456,64z"/>
		<path fill="#A6A385" d="M33.456,64l-1.703-0.583c0,0,0.208-8.685-2.91-9.309c-2.077-2.41,0.333-102.233,7.814-0.332
			c0,0-2.577,1.287-3.034,3.49C33.124,59.428,33.456,64,33.456,64L33.456,64z"/>
		<path fill="#FFFFFF" d="M34.371,55.604c0,0,14.92-9.808,11.429-30.213C42.434,10.556,34.496,5.693,33.623,3.823
			c-0.956-1.33-1.87-3.657-1.87-3.657l0.624,41.267C32.377,41.475,31.088,54.066,34.371,55.604"/>
		<path fill="#4B9E4A" d="M34.371,55.604c0,0,14.92-9.808,11.429-30.213C42.434,10.556,34.496,5.693,33.623,3.823
			c-0.956-1.33-1.87-3.657-1.87-3.657l0.624,41.267C32.377,41.475,31.088,54.066,34.371,55.604"/>
		<path fill="#FFFFFF" d="M30.88,56.145c0,0-14.006-9.559-13.174-26.389c0.79-16.832,10.68-25.102,12.592-26.598
			C31.545,1.828,31.586,1.329,31.67,0c0.873,1.87,0.707,27.969,0.831,31.043C32.875,42.888,31.836,53.901,30.88,56.145z"/>
		<path fill="#58AB50" d="M30.88,56.145c0,0-14.006-9.559-13.174-26.389c0.79-16.832,10.68-25.102,12.592-26.598
			C31.545,1.828,31.586,1.329,31.67,0c0.873,1.87,0.707,27.969,0.831,31.043C32.875,42.888,31.836,53.901,30.88,56.145z"/>
	</g>
</g>
</svg>
