<?xml version="1.0" encoding="utf-8"?>
<!-- Generator: Adobe Illustrator 14.0.0, SVG Export Plug-In . SVG Version: 6.00 Build 43363)  -->
<!DOCTYPE svg PUBLIC "-//W3C//DTD SVG 1.1//EN" "http://www.w3.org/Graphics/SVG/1.1/DTD/svg11.dtd">
<svg version="1.1" xmlns="http://www.w3.org/2000/svg" xmlns:xlink="http://www.w3.org/1999/xlink" x="0px" y="0px" width="64px"
	 height="64px" viewBox="0 0 64 64" enable-background="new 0 0 64 64" xml:space="preserve">
<g id="Calque_2" display="none">
	<rect display="inline" width="64" height="64"/>
</g>
<g id="Calque_1">
</g>
<g id="Calque_3">
	<path fill="#FFFFFF" d="M36.655,53.746c0.001,0.011,0.001,0.021,0.002,0.03c0,0-0.034,0.018-0.086,0.046
		c-1.013,0.926-1.775,1.486-2.066,1.689c-0.402,0.492-0.742,1.08-0.882,1.755C33.124,59.428,33.456,64,33.456,64l-1.703-0.583
		c0,0,0.107-4.678-1.068-7.413c-1.671-1.217-13.753-10.578-12.979-26.248c0.79-16.832,10.68-25.102,12.592-26.598
		C31.545,1.828,31.586,1.329,31.67,0c0.029,0.063,0.058,0.159,0.084,0.275l-0.001-0.109c0,0,0.914,2.327,1.87,3.657
		c0.873,1.87,8.811,6.732,12.177,21.568C48.417,40.687,40.689,50.027,36.655,53.746z M33.001,32.074c0,0,0-0.001,0-0.002
		c-0.001-0.001,0-0.001,0-0.002c-0.033-0.752-0.045-3.035-0.062-5.926c-0.031-5.511-0.078-13.84-0.307-18.937
		c-0.012-0.262-0.266-0.47-0.521-0.453c-0.276,0.011-0.49,0.232-0.479,0.493c0.228,5.079,0.275,13.397,0.306,18.902
		c0.016,2.9,0.029,5.19,0.062,5.958v0c0.207,6.193-0.012,12.986-0.583,18.173c-0.029,0.26,0.17,0.493,0.445,0.52
		c0.018,0.002,0.035,0.003,0.052,0.003c0.253,0,0.47-0.182,0.497-0.425C32.989,45.15,33.209,38.308,33.001,32.074z"/>
</g>
</svg>
