<?xml version="1.0" encoding="utf-8"?>
<!-- Generator: Adobe Illustrator 14.0.0, SVG Export Plug-In . SVG Version: 6.00 Build 43363)  -->
<!DOCTYPE svg PUBLIC "-//W3C//DTD SVG 1.1//EN" "http://www.w3.org/Graphics/SVG/1.1/DTD/svg11.dtd">
<svg version="1.1" id="Calque_1" xmlns="http://www.w3.org/2000/svg" xmlns:xlink="http://www.w3.org/1999/xlink" x="0px" y="0px"
	 width="64px" height="64px" viewBox="0 0 64 64" enable-background="new 0 0 64 64" xml:space="preserve">
<g id="Calque_2_1_" display="none">
	<rect display="inline" fill="#1A171B" width="64" height="64"/>
</g>
<g id="Calque_14" display="none">
	<g display="inline">
		<path d="M13.55,0h2.875v2.85h2.65V0h2.875v8.625h-2.875V5.75H16.45v2.875h-2.9 M25.75,2.875h-2.538V0h7.962v2.875h-2.55v5.75
			H25.75 M32.438,0h3.013l1.85,3.038L39.15,0h3.012v8.625h-2.875V4.35l-2.012,3.1l-2.014-3.1v4.275h-2.825 M43.588,0h2.875v5.775
			h4.074v2.85h-6.949"/>
		<path fill="#E44D26" d="M13.45,58.875l-4.125-46.3h45.35L50.55,58.85L31.962,64"/>
		<path fill="#F16529" d="M32,60.063V16.375h18.537L47,55.875"/>
		<path fill="#EBEBEB" d="M17.75,22.038H32v5.675h-8.025l0.525,5.813H32v5.662H19.3 M19.55,42.037h5.7l0.4,4.538l6.35,1.7V54.2
			l-11.65-3.25"/>
		<path fill="#FFFFFF" d="M46.2,22.038H31.975v5.675h13.7 M45.162,33.525H31.975V39.2h7l-0.662,7.375l-6.336,1.7v5.898L43.6,50.95"
			/>
	</g>
</g>
<g id="Calque_14_-_copie" display="none">
	<path display="inline" fill="#FFFFFF" d="M13.55,0h2.875v2.85h2.65V0h2.875v8.625h-2.875V5.75H16.45v2.875h-2.9 M25.75,2.875
		h-2.538V0h7.962v2.875h-2.55v5.75H25.75 M32.438,0h3.013l1.85,3.038L39.15,0h3.012v8.625h-2.875V4.35l-2.012,3.1l-2.014-3.1v4.275
		h-2.825 M43.588,0h2.875v5.775h4.074v2.85h-6.949"/>
	<path display="inline" fill="#FFFFFF" d="M13.45,58.875l-4.125-46.3h45.35L50.55,58.85L31.962,64 M32,27.712h13.675l0.525-5.675H32
		h-0.025H17.75l1.55,17.15h12.675V39.2h7l-0.662,7.375l-6.325,1.696l-6.337-1.696l-0.4-4.538h-5.7l0.8,8.913L32,54.2v-0.032
		l11.6-3.218l1.563-17.425H32h-0.025H24.5l-0.525-5.813h8H32z"/>
</g>
<g id="Calque_3" display="none">
	<g display="inline">
		<path fill="#0868AC" d="M4.064,15.652c-5.667,8.145-4.961,18.741-0.633,27.392c0.105,0.21,0.211,0.414,0.318,0.616
			c0.069,0.129,0.131,0.263,0.202,0.391c0.04,0.078,0.085,0.153,0.126,0.227c0.073,0.135,0.149,0.267,0.225,0.402
			c0.135,0.234,0.273,0.475,0.414,0.707c0.078,0.133,0.154,0.262,0.235,0.391c0.156,0.252,0.316,0.5,0.48,0.75
			c0.068,0.106,0.135,0.212,0.203,0.315c0.227,0.334,0.458,0.673,0.695,1.005c0.006,0.004,0.013,0.016,0.021,0.022
			c0.037,0.052,0.078,0.103,0.117,0.157c0.206,0.285,0.418,0.565,0.633,0.844c0.078,0.102,0.158,0.202,0.238,0.302
			c0.192,0.241,0.387,0.479,0.584,0.722c0.074,0.086,0.148,0.18,0.223,0.267c0.268,0.313,0.539,0.625,0.815,0.931
			c0.005,0.008,0.012,0.012,0.016,0.016C8.99,51.12,9,51.129,9.01,51.145c0.271,0.293,0.548,0.58,0.828,0.873
			c0.087,0.088,0.177,0.178,0.266,0.266c0.218,0.221,0.438,0.436,0.662,0.648c0.091,0.088,0.182,0.174,0.271,0.256
			c0.297,0.282,0.598,0.557,0.905,0.828c0.005,0.004,0.01,0.008,0.015,0.012c0.053,0.047,0.106,0.088,0.157,0.134
			c0.271,0.233,0.546,0.468,0.824,0.694c0.112,0.092,0.228,0.182,0.34,0.272c0.228,0.181,0.456,0.358,0.687,0.536
			c0.122,0.093,0.244,0.186,0.367,0.277c0.255,0.188,0.511,0.371,0.771,0.554c0.094,0.067,0.186,0.134,0.28,0.196
			c0.026,0.021,0.049,0.037,0.076,0.056c0.246,0.17,0.497,0.334,0.748,0.495c0.108,0.07,0.214,0.146,0.324,0.218
			c0.386,0.243,0.776,0.481,1.17,0.716c0.107,0.063,0.217,0.12,0.324,0.182c0.291,0.17,0.582,0.334,0.879,0.494
			c0.16,0.086,0.326,0.168,0.486,0.25c0.209,0.11,0.417,0.223,0.627,0.325c0.049,0.026,0.098,0.05,0.148,0.072
			c0.084,0.04,0.17,0.083,0.256,0.123c0.329,0.159,0.661,0.313,0.997,0.463c0.071,0.031,0.141,0.063,0.211,0.095
			c0.384,0.168,0.771,0.328,1.163,0.481c0.094,0.038,0.188,0.073,0.283,0.112c0.361,0.141,0.728,0.276,1.096,0.404
			c0.047,0.018,0.092,0.035,0.138,0.049c0.403,0.142,0.812,0.272,1.223,0.401c0.098,0.028,0.197,0.06,0.295,0.087
			c0.419,0.127,0.832,0.277,1.263,0.358c27.404,4.997,35.364-16.472,35.364-16.472c-6.685,8.713-18.554,11.01-29.8,8.451
			c-0.422-0.095-0.836-0.228-1.252-0.351c-0.106-0.033-0.208-0.063-0.313-0.099c-0.406-0.123-0.809-0.254-1.208-0.391
			c-0.056-0.021-0.111-0.04-0.167-0.061c-0.358-0.127-0.712-0.26-1.065-0.396c-0.1-0.039-0.199-0.077-0.298-0.116
			c-0.387-0.156-0.771-0.313-1.151-0.48c-0.078-0.031-0.153-0.066-0.229-0.102c-0.328-0.147-0.648-0.293-0.97-0.449
			c-0.093-0.047-0.186-0.09-0.282-0.137c-0.251-0.121-0.501-0.253-0.75-0.38c-0.167-0.089-0.336-0.174-0.502-0.265
			c-0.303-0.163-0.602-0.331-0.899-0.503c-0.101-0.058-0.203-0.113-0.304-0.171c-0.395-0.232-0.786-0.475-1.171-0.717
			c-0.107-0.069-0.21-0.145-0.316-0.211c-0.28-0.182-0.559-0.365-0.833-0.556c-0.091-0.062-0.18-0.128-0.27-0.188
			c-0.265-0.187-0.527-0.377-0.787-0.568c-0.119-0.086-0.235-0.18-0.349-0.264c-0.239-0.183-0.477-0.368-0.711-0.558
			c-0.106-0.085-0.213-0.169-0.317-0.253c-0.299-0.247-0.594-0.494-0.886-0.747c-0.03-0.026-0.064-0.055-0.097-0.081
			c-0.314-0.277-0.625-0.561-0.93-0.849c-0.089-0.083-0.176-0.165-0.263-0.253c-0.227-0.215-0.449-0.432-0.669-0.653
			c-0.087-0.089-0.175-0.173-0.261-0.262c-0.279-0.285-0.553-0.577-0.822-0.87c-0.012-0.014-0.028-0.027-0.041-0.04
			c-0.284-0.31-0.561-0.628-0.832-0.948c-0.074-0.091-0.144-0.174-0.218-0.26c-0.203-0.244-0.404-0.491-0.6-0.741
			c-0.073-0.09-0.146-0.18-0.22-0.272c-0.235-0.307-0.466-0.611-0.692-0.92C5.74,31.43,3.498,19.688,8.487,10.042L4.064,15.652z"/>
		<path fill="#0868AC" d="M21.654,8.791c-4.097,5.896-3.875,13.791-0.679,20.027c0.537,1.045,1.139,2.061,1.813,3.025
			c0.612,0.88,1.293,1.929,2.108,2.636c0.297,0.323,0.605,0.642,0.92,0.953c0.08,0.082,0.162,0.161,0.243,0.237
			c0.306,0.299,0.617,0.592,0.939,0.873c0.015,0.013,0.024,0.024,0.039,0.035c0.003,0.004,0.007,0.006,0.008,0.01
			c0.356,0.312,0.723,0.611,1.097,0.906c0.084,0.063,0.166,0.129,0.249,0.194c0.375,0.285,0.756,0.569,1.148,0.838
			c0.011,0.007,0.021,0.016,0.034,0.025c0.172,0.117,0.349,0.229,0.523,0.348c0.083,0.052,0.164,0.109,0.248,0.16
			c0.279,0.181,0.563,0.354,0.851,0.522c0.04,0.022,0.08,0.046,0.121,0.069c0.247,0.142,0.499,0.283,0.752,0.422
			c0.086,0.047,0.176,0.088,0.266,0.138c0.174,0.09,0.35,0.185,0.525,0.271c0.027,0.015,0.054,0.025,0.08,0.037
			c0.36,0.178,0.726,0.351,1.096,0.513c0.081,0.034,0.165,0.063,0.244,0.098c0.298,0.127,0.599,0.25,0.898,0.366
			c0.127,0.048,0.258,0.098,0.387,0.142c0.274,0.101,0.549,0.195,0.826,0.288c0.125,0.04,0.248,0.079,0.373,0.118
			c0.396,0.121,0.781,0.276,1.193,0.347C59.113,45.895,64,29.604,64,29.604c-4.402,6.343-12.93,9.367-22.029,7.005
			c-0.404-0.105-0.804-0.221-1.197-0.346c-0.121-0.039-0.241-0.078-0.362-0.115c-0.28-0.094-0.56-0.188-0.835-0.291
			c-0.126-0.047-0.256-0.092-0.381-0.139c-0.301-0.119-0.603-0.24-0.901-0.365c-0.079-0.035-0.163-0.065-0.242-0.104
			c-0.374-0.161-0.741-0.334-1.103-0.514c-0.188-0.09-0.371-0.188-0.555-0.282c-0.108-0.054-0.215-0.108-0.318-0.163
			c-0.235-0.127-0.471-0.262-0.703-0.396c-0.053-0.03-0.109-0.061-0.165-0.094c-0.288-0.166-0.569-0.34-0.851-0.518
			c-0.084-0.055-0.168-0.114-0.256-0.172c-0.184-0.119-0.369-0.241-0.551-0.363c-0.391-0.268-0.77-0.55-1.142-0.834
			c-0.086-0.068-0.173-0.136-0.258-0.204c-3.981-3.145-7.139-7.442-8.64-12.315c-1.573-5.054-1.234-10.727,1.492-15.33L21.654,8.791
			z"/>
		<path fill="#0868AC" d="M36.449,3.664c-2.417,3.556-2.655,7.971-0.979,11.897c1.768,4.168,5.391,7.438,9.619,8.988
			c0.172,0.064,0.348,0.123,0.521,0.184c0.08,0.022,0.156,0.049,0.234,0.071c0.248,0.079,0.494,0.17,0.752,0.218
			c11.682,2.258,14.853-5.995,15.694-7.209c-2.772,3.996-7.44,4.955-13.163,3.567c-0.453-0.111-0.949-0.273-1.385-0.428
			c-0.561-0.199-1.109-0.426-1.646-0.684c-1.014-0.488-1.984-1.08-2.88-1.758c-5.122-3.887-8.306-11.301-4.962-17.337L36.449,3.664z
			"/>
	</g>
</g>
<g id="Calque_3_-_copie" display="none">
	<g display="inline">
		<path fill="#FFFFFF" d="M4.064,15.652c-5.667,8.145-4.961,18.741-0.633,27.392c0.105,0.21,0.211,0.414,0.318,0.616
			c0.069,0.129,0.131,0.263,0.202,0.391c0.04,0.078,0.085,0.153,0.126,0.227c0.073,0.135,0.149,0.267,0.225,0.402
			c0.135,0.234,0.273,0.475,0.414,0.707c0.078,0.133,0.154,0.262,0.235,0.391c0.156,0.252,0.316,0.5,0.48,0.75
			c0.068,0.106,0.135,0.212,0.203,0.315c0.227,0.334,0.458,0.673,0.695,1.005c0.006,0.004,0.013,0.016,0.021,0.022
			c0.037,0.052,0.078,0.103,0.117,0.157c0.206,0.285,0.418,0.565,0.633,0.844c0.078,0.102,0.158,0.202,0.238,0.302
			c0.192,0.241,0.387,0.479,0.584,0.722c0.074,0.086,0.148,0.18,0.223,0.267c0.268,0.313,0.539,0.625,0.815,0.931
			c0.005,0.008,0.012,0.012,0.016,0.016C8.99,51.12,9,51.129,9.01,51.145c0.271,0.293,0.548,0.58,0.828,0.873
			c0.087,0.088,0.177,0.178,0.266,0.266c0.218,0.221,0.438,0.436,0.662,0.648c0.091,0.088,0.182,0.174,0.271,0.256
			c0.297,0.282,0.598,0.557,0.905,0.828c0.005,0.004,0.01,0.008,0.015,0.012c0.053,0.047,0.106,0.088,0.157,0.134
			c0.271,0.233,0.546,0.468,0.824,0.694c0.112,0.092,0.228,0.182,0.34,0.272c0.228,0.181,0.456,0.358,0.687,0.536
			c0.122,0.093,0.244,0.186,0.367,0.277c0.255,0.188,0.511,0.371,0.771,0.554c0.094,0.067,0.186,0.134,0.28,0.196
			c0.026,0.021,0.049,0.037,0.076,0.056c0.246,0.17,0.497,0.334,0.748,0.495c0.108,0.07,0.214,0.146,0.324,0.218
			c0.386,0.243,0.776,0.481,1.17,0.716c0.107,0.063,0.217,0.12,0.324,0.182c0.291,0.17,0.582,0.334,0.879,0.494
			c0.16,0.086,0.326,0.168,0.486,0.25c0.209,0.11,0.417,0.223,0.627,0.325c0.049,0.026,0.098,0.05,0.148,0.072
			c0.084,0.04,0.17,0.083,0.256,0.123c0.329,0.159,0.661,0.313,0.997,0.463c0.071,0.031,0.141,0.063,0.211,0.095
			c0.384,0.168,0.771,0.328,1.163,0.481c0.094,0.038,0.188,0.073,0.283,0.112c0.361,0.141,0.728,0.276,1.096,0.404
			c0.047,0.018,0.092,0.035,0.138,0.049c0.403,0.142,0.812,0.272,1.223,0.401c0.098,0.028,0.197,0.06,0.295,0.087
			c0.419,0.127,0.832,0.277,1.263,0.358c27.404,4.997,35.364-16.472,35.364-16.472c-6.685,8.713-18.554,11.01-29.8,8.451
			c-0.422-0.095-0.836-0.228-1.252-0.351c-0.106-0.033-0.208-0.063-0.313-0.099c-0.406-0.123-0.809-0.254-1.208-0.391
			c-0.056-0.021-0.111-0.04-0.167-0.061c-0.358-0.127-0.712-0.26-1.065-0.396c-0.1-0.039-0.199-0.077-0.298-0.116
			c-0.387-0.156-0.771-0.313-1.151-0.48c-0.078-0.031-0.153-0.066-0.229-0.102c-0.328-0.147-0.648-0.293-0.97-0.449
			c-0.093-0.047-0.186-0.09-0.282-0.137c-0.251-0.121-0.501-0.253-0.75-0.38c-0.167-0.089-0.336-0.174-0.502-0.265
			c-0.303-0.163-0.602-0.331-0.899-0.503c-0.101-0.058-0.203-0.113-0.304-0.171c-0.395-0.232-0.786-0.475-1.171-0.717
			c-0.107-0.069-0.21-0.145-0.316-0.211c-0.28-0.182-0.559-0.365-0.833-0.556c-0.091-0.062-0.18-0.128-0.27-0.188
			c-0.265-0.187-0.527-0.377-0.787-0.568c-0.119-0.086-0.235-0.18-0.349-0.264c-0.239-0.183-0.477-0.368-0.711-0.558
			c-0.106-0.085-0.213-0.169-0.317-0.253c-0.299-0.247-0.594-0.494-0.886-0.747c-0.03-0.026-0.064-0.055-0.097-0.081
			c-0.314-0.277-0.625-0.561-0.93-0.849c-0.089-0.083-0.176-0.165-0.263-0.253c-0.227-0.215-0.449-0.432-0.669-0.653
			c-0.087-0.089-0.175-0.173-0.261-0.262c-0.279-0.285-0.553-0.577-0.822-0.87c-0.012-0.014-0.028-0.027-0.041-0.04
			c-0.284-0.31-0.561-0.628-0.832-0.948c-0.074-0.091-0.144-0.174-0.218-0.26c-0.203-0.244-0.404-0.491-0.6-0.741
			c-0.073-0.09-0.146-0.18-0.22-0.272c-0.235-0.307-0.466-0.611-0.692-0.92C5.74,31.43,3.498,19.688,8.487,10.042L4.064,15.652z"/>
		<path fill="#FFFFFF" d="M21.654,8.791c-4.097,5.896-3.875,13.791-0.679,20.027c0.537,1.045,1.139,2.061,1.813,3.025
			c0.612,0.88,1.293,1.929,2.108,2.636c0.297,0.323,0.605,0.642,0.92,0.953c0.08,0.082,0.162,0.161,0.243,0.237
			c0.306,0.299,0.617,0.592,0.939,0.873c0.015,0.013,0.024,0.024,0.039,0.035c0.003,0.004,0.007,0.006,0.008,0.01
			c0.356,0.312,0.723,0.611,1.097,0.906c0.084,0.063,0.166,0.129,0.249,0.194c0.375,0.285,0.756,0.569,1.148,0.838
			c0.011,0.007,0.021,0.016,0.034,0.025c0.172,0.117,0.349,0.229,0.523,0.348c0.083,0.052,0.164,0.109,0.248,0.16
			c0.279,0.181,0.563,0.354,0.851,0.522c0.04,0.022,0.08,0.046,0.121,0.069c0.247,0.142,0.499,0.283,0.752,0.422
			c0.086,0.047,0.176,0.088,0.266,0.138c0.174,0.09,0.35,0.185,0.525,0.271c0.027,0.015,0.054,0.025,0.08,0.037
			c0.36,0.178,0.726,0.351,1.096,0.513c0.081,0.034,0.165,0.063,0.244,0.098c0.298,0.127,0.599,0.25,0.898,0.366
			c0.127,0.048,0.258,0.098,0.387,0.142c0.274,0.101,0.549,0.195,0.826,0.288c0.125,0.04,0.248,0.079,0.373,0.118
			c0.396,0.121,0.781,0.276,1.193,0.347C59.113,45.895,64,29.604,64,29.604c-4.402,6.343-12.93,9.367-22.029,7.005
			c-0.404-0.105-0.804-0.221-1.197-0.346c-0.121-0.039-0.241-0.078-0.362-0.115c-0.28-0.094-0.56-0.188-0.835-0.291
			c-0.126-0.047-0.256-0.092-0.381-0.139c-0.301-0.119-0.603-0.24-0.901-0.365c-0.079-0.035-0.163-0.065-0.242-0.104
			c-0.374-0.161-0.741-0.334-1.103-0.514c-0.188-0.09-0.371-0.188-0.555-0.282c-0.108-0.054-0.215-0.108-0.318-0.163
			c-0.235-0.127-0.471-0.262-0.703-0.396c-0.053-0.03-0.109-0.061-0.165-0.094c-0.288-0.166-0.569-0.34-0.851-0.518
			c-0.084-0.055-0.168-0.114-0.256-0.172c-0.184-0.119-0.369-0.241-0.551-0.363c-0.391-0.268-0.77-0.55-1.142-0.834
			c-0.086-0.068-0.173-0.136-0.258-0.204c-3.981-3.145-7.139-7.442-8.64-12.315c-1.573-5.054-1.234-10.727,1.492-15.33L21.654,8.791
			z"/>
		<path fill="#FFFFFF" d="M36.449,3.664c-2.417,3.556-2.655,7.971-0.979,11.897c1.768,4.168,5.391,7.438,9.619,8.988
			c0.172,0.064,0.348,0.123,0.521,0.184c0.08,0.022,0.156,0.049,0.234,0.071c0.248,0.079,0.494,0.17,0.752,0.218
			c11.682,2.258,14.853-5.995,15.694-7.209c-2.772,3.996-7.44,4.955-13.163,3.567c-0.453-0.111-0.949-0.273-1.385-0.428
			c-0.561-0.199-1.109-0.426-1.646-0.684c-1.014-0.488-1.984-1.08-2.88-1.758c-5.122-3.887-8.306-11.301-4.962-17.337L36.449,3.664z
			"/>
	</g>
</g>
<g id="Calque_4" display="none">
	<g display="inline">
		<g id="g3440">
			<g>
				<g>
					<defs>
						<path id="SVGID_1_" d="M0,32c0,9.297,14.327,16.833,32,16.833l0,0c17.673,0,32-7.536,32-16.833l0,0
							c0-9.296-14.327-16.833-32-16.833l0,0C14.327,15.167,0,22.704,0,32"/>
					</defs>
					<clipPath id="SVGID_2_">
						<use xlink:href="#SVGID_1_"  overflow="visible"/>
					</clipPath>
					<g id="g3442" clip-path="url(#SVGID_2_)">
						<g id="g3448">
							<g id="g3450">
								
									<radialGradient id="path3462_1_" cx="-141.8037" cy="157.7607" r="0.9991" gradientTransform="matrix(42.0205 0 0 42.0205 5977.9277 -6608.104)" gradientUnits="userSpaceOnUse">
									<stop  offset="0" style="stop-color:#AEB2D5"/>
									<stop  offset="0.3" style="stop-color:#AEB2D5"/>
									<stop  offset="0.75" style="stop-color:#484C89"/>
									<stop  offset="1" style="stop-color:#484C89"/>
								</radialGradient>
								<path id="path3462" fill="url(#path3462_1_)" d="M0,32c0,9.297,14.327,16.833,32,16.833l0,0c17.673,0,32-7.536,32-16.833
									l0,0c0-9.296-14.327-16.833-32-16.833l0,0C14.327,15.167,0,22.704,0,32"/>
							</g>
						</g>
					</g>
				</g>
			</g>
		</g>
		<g id="g3466">
			<g id="g3472" transform="translate(288,27.3594)">
				<path id="path3474" fill="#777BB3" d="M-256,20.225c16.982,0,30.75-6.978,30.75-15.583S-239.018-10.943-256-10.943
					c-16.982,0-30.75,6.977-30.75,15.583S-272.982,20.225-256,20.225"/>
			</g>
		</g>
		<g id="g3478">
			<g id="g3484" transform="translate(161.7344,145.3066)">
				<path id="path3486" d="M-144.349-111.374c1.396,0,2.439-0.258,3.099-0.767c0.652-0.502,1.103-1.373,1.339-2.586
					c0.22-1.135,0.136-1.927-0.249-2.355c-0.395-0.437-1.247-0.658-2.534-0.658h-2.231l-1.237,6.366H-144.349z M-151.647-103.533
					c-0.104,0-0.202-0.046-0.268-0.126s-0.093-0.187-0.073-0.287l3.279-16.87c0.032-0.163,0.175-0.281,0.341-0.281h7.066
					c2.221,0,3.874,0.603,4.913,1.792c1.044,1.196,1.367,2.867,0.958,4.968c-0.166,0.855-0.452,1.651-0.85,2.362
					c-0.398,0.713-0.924,1.371-1.564,1.959c-0.766,0.718-1.632,1.236-2.573,1.543c-0.926,0.302-2.116,0.455-3.536,0.455h-2.861
					l-0.817,4.203c-0.032,0.162-0.174,0.28-0.341,0.28L-151.647-103.533L-151.647-103.533z"/>
			</g>
			<g id="g3488" transform="translate(159.2236,197.3071)">
				<path id="path3490" fill="#FFFFFF" d="M-142.128-169.394h1.945c1.553,0,2.093,0.341,2.276,0.544
					c0.304,0.337,0.362,1.048,0.166,2.056c-0.22,1.129-0.627,1.929-1.21,2.377c-0.597,0.461-1.569,0.693-2.887,0.693h-1.393
					L-142.128-169.394z M-138.791-173.444h-7.066c-0.333,0-0.618,0.235-0.682,0.562l-3.279,16.87
					c-0.04,0.203,0.014,0.414,0.146,0.574c0.132,0.16,0.328,0.253,0.536,0.253h3.675c0.333,0,0.618-0.235,0.682-0.563l0.763-3.922
					h2.575c1.457,0,2.683-0.16,3.644-0.473c0.989-0.32,1.898-0.866,2.703-1.619c0.666-0.611,1.214-1.3,1.629-2.043
					c0.416-0.744,0.714-1.574,0.888-2.466c0.43-2.211,0.081-3.981-1.038-5.262C-134.725-172.801-136.466-173.444-138.791-173.444
					 M-144.073-163.028h2.235c1.482,0,2.585-0.279,3.311-0.838c0.725-0.559,1.214-1.49,1.468-2.795
					c0.243-1.253,0.133-2.138-0.332-2.654c-0.465-0.515-1.396-0.773-2.792-0.773h-2.518L-144.073-163.028 M-138.791-172.75
					c2.126,0,3.677,0.558,4.651,1.674c0.975,1.116,1.268,2.673,0.879,4.673c-0.16,0.824-0.431,1.577-0.812,2.259
					c-0.381,0.683-0.88,1.308-1.496,1.873c-0.734,0.687-1.549,1.176-2.446,1.468s-2.04,0.438-3.429,0.438h-3.147l-0.872,4.483
					h-3.675l3.279-16.869H-138.791"/>
			</g>
			<g id="g3492" transform="translate(311.583,116.3066)">
				<path id="path3494" d="M-276.854-79.018c-0.104,0-0.201-0.047-0.268-0.127s-0.093-0.187-0.072-0.287l1.449-7.464
					c0.139-0.71,0.104-1.219-0.096-1.435c-0.122-0.132-0.489-0.353-1.575-0.353h-2.627l-1.823,9.384
					c-0.032,0.163-0.175,0.28-0.341,0.28h-3.646c-0.104,0-0.202-0.047-0.268-0.127s-0.093-0.186-0.073-0.287l3.279-16.868
					c0.032-0.163,0.175-0.281,0.341-0.281h3.646c0.104,0,0.203,0.046,0.269,0.126s0.093,0.186,0.073,0.287l-0.792,4.072h2.827
					c2.152,0,3.613,0.379,4.464,1.161c0.866,0.797,1.138,2.071,0.805,3.787l-1.524,7.851c-0.032,0.163-0.176,0.281-0.342,0.281
					H-276.854z"/>
			</g>
			<g id="g3496" transform="translate(293.6611,271.0571)">
				<path id="path3498" fill="#FFFFFF" d="M-261.006-251.68h-3.646c-0.333,0-0.618,0.236-0.682,0.562l-3.279,16.87
					c-0.04,0.203,0.014,0.414,0.146,0.573c0.132,0.16,0.329,0.253,0.536,0.253h3.646c0.333,0,0.618-0.234,0.682-0.562l1.769-9.103
					h2.341c1.084,0,1.313,0.232,1.32,0.242c0.066,0.071,0.152,0.398,0.01,1.132l-1.449,7.464c-0.041,0.203,0.014,0.414,0.146,0.574
					c0.132,0.159,0.329,0.252,0.536,0.252h3.703c0.332,0,0.619-0.234,0.683-0.562l1.524-7.851c0.357-1.843,0.053-3.225-0.91-4.109
					c-0.918-0.843-2.454-1.252-4.698-1.252h-2.405l0.711-3.658c0.039-0.204-0.014-0.414-0.146-0.574
					C-260.603-251.587-260.799-251.68-261.006-251.68 M-261.006-250.985l-0.872,4.485h3.248c2.044,0,3.453,0.356,4.229,1.069
					s1.008,1.868,0.698,3.465l-1.526,7.851h-3.703l1.451-7.464c0.164-0.849,0.104-1.428-0.183-1.737
					c-0.287-0.309-0.897-0.463-1.83-0.463h-2.914l-1.878,9.664h-3.646l3.279-16.868L-261.006-250.985"/>
			</g>
			<g id="g3500" transform="translate(409.5498,145.3066)">
				<path id="path3502" d="M-363.481-111.374c1.396,0,2.438-0.258,3.1-0.767c0.652-0.502,1.104-1.373,1.339-2.586
					c0.222-1.135,0.137-1.927-0.249-2.355c-0.395-0.437-1.247-0.658-2.534-0.658h-2.231l-1.236,6.366H-363.481z M-370.78-103.533
					c-0.104,0-0.201-0.046-0.269-0.126c-0.065-0.08-0.093-0.187-0.072-0.287l3.278-16.87c0.031-0.163,0.175-0.281,0.341-0.281h7.065
					c2.222,0,3.875,0.603,4.914,1.792c1.045,1.195,1.367,2.867,0.959,4.968c-0.168,0.855-0.453,1.651-0.851,2.362
					c-0.397,0.713-0.925,1.371-1.563,1.959c-0.767,0.718-1.633,1.236-2.573,1.543c-0.927,0.302-2.116,0.455-3.536,0.455h-2.861
					l-0.816,4.203c-0.031,0.162-0.174,0.28-0.34,0.28L-370.78-103.533L-370.78-103.533z"/>
			</g>
			<g id="g3504" transform="translate(407.0391,197.3071)">
				<path id="path3506" fill="#FFFFFF" d="M-361.262-169.394h1.945c1.553,0,2.092,0.341,2.275,0.544
					c0.305,0.337,0.362,1.048,0.166,2.056c-0.22,1.129-0.627,1.929-1.21,2.377c-0.599,0.461-1.569,0.693-2.888,0.693h-1.393
					L-361.262-169.394z M-357.925-173.444h-7.066c-0.331,0-0.618,0.235-0.682,0.562l-3.278,16.87
					c-0.04,0.203,0.014,0.414,0.146,0.574c0.132,0.16,0.328,0.253,0.535,0.253h3.676c0.332,0,0.617-0.235,0.682-0.563l0.762-3.922
					h2.575c1.457,0,2.683-0.16,3.644-0.473c0.99-0.32,1.898-0.866,2.703-1.619c0.666-0.611,1.215-1.3,1.631-2.043
					c0.414-0.744,0.714-1.574,0.888-2.466c0.431-2.211,0.08-3.982-1.038-5.262C-353.857-172.801-355.6-173.444-357.925-173.444
					 M-363.206-163.028h2.235c1.48,0,2.585-0.279,3.311-0.838c0.725-0.559,1.215-1.49,1.469-2.795
					c0.242-1.253,0.133-2.138-0.332-2.654c-0.465-0.515-1.396-0.773-2.793-0.773h-2.518L-363.206-163.028 M-357.925-172.75
					c2.126,0,3.677,0.558,4.651,1.674c0.975,1.116,1.269,2.673,0.879,4.673c-0.159,0.824-0.432,1.577-0.813,2.259
					c-0.382,0.683-0.88,1.308-1.495,1.873c-0.733,0.687-1.549,1.176-2.446,1.468c-0.896,0.292-2.039,0.438-3.429,0.438h-3.147
					l-0.87,4.483h-3.675l3.277-16.869H-357.925"/>
			</g>
		</g>
	</g>
</g>
<g id="Calque_4_-_copie" display="none">
	<g display="inline">
		<path fill="#FFFFFF" d="M47.723,27.566h-2.23l-1.237,6.366h1.813c1.396,0,2.438-0.258,3.1-0.766
			c0.652-0.502,1.104-1.373,1.339-2.587c0.222-1.135,0.138-1.927-0.249-2.355C49.861,27.788,49.01,27.566,47.723,27.566z"/>
		<path fill="#FFFFFF" d="M19.041,27.566H16.81l-1.237,6.366h1.814c1.396,0,2.439-0.258,3.099-0.766
			c0.652-0.503,1.103-1.373,1.339-2.587c0.22-1.135,0.136-1.927-0.249-2.355C21.18,27.788,20.328,27.566,19.041,27.566z"/>
		<path fill="#FFFFFF" d="M32,15.167C14.327,15.167,0,22.704,0,32c0,9.297,14.327,16.833,32,16.833S64,41.297,64,32
			C64,22.704,49.673,15.167,32,15.167z M21.317,36.834c-0.926,0.302-2.116,0.455-3.536,0.455H14.92l-0.817,4.203
			c-0.032,0.163-0.174,0.281-0.341,0.281h-3.675c-0.104,0-0.202-0.047-0.268-0.127s-0.093-0.186-0.073-0.287l3.279-16.869
			c0.032-0.163,0.175-0.281,0.341-0.281h7.066c2.221,0,3.874,0.603,4.913,1.792c1.044,1.196,1.367,2.867,0.958,4.968
			c-0.166,0.855-0.452,1.651-0.85,2.362c-0.398,0.713-0.924,1.372-1.564,1.96C23.125,36.009,22.258,36.527,21.317,36.834z
			 M34.462,37.162c-0.065-0.08-0.093-0.186-0.073-0.287l1.45-7.464c0.138-0.71,0.104-1.219-0.096-1.435
			c-0.122-0.132-0.489-0.353-1.575-0.353h-2.627l-1.823,9.384c-0.032,0.163-0.175,0.281-0.341,0.281H25.73
			c-0.104,0-0.202-0.047-0.268-0.127s-0.093-0.187-0.073-0.287l3.279-16.869c0.032-0.163,0.175-0.281,0.341-0.281h3.646
			c0.104,0,0.203,0.046,0.269,0.126s0.093,0.186,0.073,0.287l-0.792,4.072h2.827c2.152,0,3.613,0.379,4.464,1.161
			c0.866,0.797,1.138,2.071,0.805,3.787l-1.524,7.851c-0.032,0.163-0.176,0.281-0.342,0.281H34.73
			C34.626,37.289,34.527,37.242,34.462,37.162z M54.986,30.97c-0.168,0.855-0.452,1.651-0.85,2.362
			c-0.398,0.713-0.926,1.372-1.564,1.96c-0.766,0.717-1.633,1.235-2.573,1.542c-0.927,0.302-2.116,0.455-3.536,0.455h-2.861
			l-0.815,4.203c-0.032,0.163-0.175,0.281-0.341,0.281H38.77c-0.104,0-0.201-0.047-0.269-0.127c-0.065-0.08-0.093-0.186-0.071-0.287
			l3.277-16.869c0.031-0.163,0.175-0.281,0.341-0.281h7.065c2.222,0,3.875,0.603,4.914,1.792
			C55.072,27.198,55.395,28.869,54.986,30.97z"/>
	</g>
</g>
<g id="Calque_6" display="none">
	<g display="inline">
		<path fill="#539E43" d="M32,64c-0.882,0-1.705-0.234-2.47-0.646l-7.82-4.646c-1.176-0.646-0.588-0.882-0.234-0.999
			c1.587-0.529,1.881-0.646,3.527-1.588c0.177-0.117,0.411-0.059,0.588,0.059l5.997,3.588c0.235,0.116,0.529,0.116,0.706,0
			l23.46-13.582c0.234-0.117,0.354-0.354,0.354-0.646V18.433c0-0.294-0.117-0.529-0.354-0.646L32.294,4.263
			c-0.235-0.117-0.529-0.117-0.706,0L8.128,17.786c-0.234,0.117-0.353,0.411-0.353,0.646v27.105c0,0.234,0.118,0.529,0.353,0.646
			l6.409,3.703c3.469,1.764,5.645-0.294,5.645-2.352V20.784c0-0.353,0.294-0.705,0.706-0.705h2.998c0.353,0,0.706,0.294,0.706,0.705
			v26.753c0,4.645-2.528,7.35-6.938,7.35c-1.353,0-2.41,0-5.409-1.47L6.07,49.889c-1.528-0.882-2.469-2.527-2.469-4.291V18.491
			c0-1.764,0.94-3.41,2.469-4.292L29.53,0.617c1.47-0.823,3.469-0.823,4.939,0l23.459,13.582c1.529,0.882,2.471,2.528,2.471,4.292
			v27.104c0,1.764-0.94,3.41-2.471,4.293L34.471,63.471C33.705,63.823,32.823,64,32,64z M39.23,45.361
			c-10.289,0-12.404-4.704-12.404-8.702c0-0.353,0.294-0.705,0.705-0.705h3.058c0.353,0,0.646,0.235,0.646,0.588
			c0.471,3.116,1.824,4.646,8.056,4.646c4.938,0,7.055-1.117,7.055-3.764c0-1.527-0.588-2.646-8.289-3.41
			c-6.409-0.646-10.408-2.058-10.408-7.173c0-4.763,3.999-7.585,10.701-7.585c7.526,0,11.23,2.587,11.701,8.231
			c0,0.177-0.06,0.353-0.177,0.529c-0.118,0.117-0.294,0.235-0.472,0.235h-3.057c-0.295,0-0.589-0.235-0.646-0.529
			c-0.705-3.234-2.528-4.292-7.35-4.292c-5.41,0-6.057,1.881-6.057,3.292c0,1.705,0.766,2.234,8.055,3.175
			c7.232,0.941,10.644,2.294,10.644,7.351C50.934,42.422,46.699,45.361,39.23,45.361z"/>
	</g>
</g>
<g id="Calque_6_-_copie" display="none">
	<g display="inline">
		<path fill="#FFFFFF" d="M32,64c-0.882,0-1.705-0.234-2.47-0.646l-7.82-4.646c-1.176-0.646-0.588-0.882-0.234-0.999
			c1.587-0.529,1.881-0.646,3.527-1.588c0.177-0.117,0.411-0.059,0.588,0.059l5.997,3.588c0.235,0.116,0.529,0.116,0.706,0
			l23.46-13.582c0.234-0.117,0.354-0.354,0.354-0.646V18.433c0-0.294-0.117-0.529-0.354-0.646L32.294,4.263
			c-0.235-0.117-0.529-0.117-0.706,0L8.128,17.786c-0.234,0.117-0.353,0.411-0.353,0.646v27.105c0,0.234,0.118,0.529,0.353,0.646
			l6.409,3.703c3.469,1.764,5.645-0.294,5.645-2.352V20.784c0-0.353,0.294-0.705,0.706-0.705h2.998c0.353,0,0.706,0.294,0.706,0.705
			v26.753c0,4.645-2.528,7.35-6.938,7.35c-1.353,0-2.41,0-5.409-1.47L6.07,49.889c-1.528-0.882-2.469-2.527-2.469-4.291V18.491
			c0-1.764,0.94-3.41,2.469-4.292L29.53,0.617c1.47-0.823,3.469-0.823,4.939,0l23.459,13.582c1.529,0.882,2.471,2.528,2.471,4.292
			v27.104c0,1.764-0.94,3.41-2.471,4.293L34.471,63.471C33.705,63.823,32.823,64,32,64z M39.23,45.361
			c-10.289,0-12.404-4.704-12.404-8.702c0-0.353,0.294-0.705,0.705-0.705h3.058c0.353,0,0.646,0.235,0.646,0.588
			c0.471,3.116,1.824,4.646,8.056,4.646c4.938,0,7.055-1.117,7.055-3.764c0-1.527-0.588-2.646-8.289-3.41
			c-6.409-0.646-10.408-2.058-10.408-7.173c0-4.763,3.999-7.585,10.701-7.585c7.526,0,11.23,2.587,11.701,8.231
			c0,0.177-0.06,0.353-0.177,0.529c-0.118,0.117-0.294,0.235-0.472,0.235h-3.057c-0.295,0-0.589-0.235-0.646-0.529
			c-0.705-3.234-2.528-4.292-7.35-4.292c-5.41,0-6.057,1.881-6.057,3.292c0,1.705,0.766,2.234,8.055,3.175
			c7.232,0.941,10.644,2.294,10.644,7.351C50.934,42.422,46.699,45.361,39.23,45.361z"/>
	</g>
</g>
<g id="Calque_8" display="none">
	<g display="inline">
		<path fill="#53C1DE" d="M52.621,21.985c-0.664-0.229-1.352-0.444-2.061-0.649c0.116-0.475,0.224-0.944,0.318-1.405
			c1.561-7.57,0.54-13.669-2.941-15.677c-3.34-1.926-8.799,0.082-14.313,4.881c-0.53,0.462-1.063,0.95-1.594,1.462
			c-0.354-0.339-0.708-0.666-1.061-0.979c-5.78-5.131-11.573-7.294-15.052-5.28c-3.335,1.931-4.323,7.664-2.919,14.839
			c0.136,0.693,0.294,1.4,0.473,2.12c-0.819,0.232-1.611,0.48-2.368,0.745C4.327,24.403,0,28.106,0,31.946
			c0,3.966,4.646,7.945,11.703,10.356c0.557,0.19,1.135,0.37,1.73,0.541c-0.193,0.778-0.361,1.541-0.503,2.284
			c-1.338,7.051-0.293,12.648,3.034,14.566c3.436,1.981,9.202-0.055,14.818-4.965c0.443-0.388,0.889-0.799,1.335-1.229
			c0.578,0.558,1.156,1.084,1.73,1.579c5.438,4.68,10.812,6.57,14.135,4.646c3.433-1.988,4.549-8.002,3.101-15.317
			c-0.11-0.56-0.24-1.13-0.384-1.712c0.404-0.118,0.802-0.242,1.189-0.37C59.227,39.895,64,35.965,64,31.946
			C64,28.092,59.533,24.365,52.621,21.985z M35.419,11.197c4.726-4.112,9.142-5.735,11.151-4.575
			c2.145,1.236,2.978,6.221,1.632,12.757c-0.086,0.417-0.185,0.842-0.288,1.272c-2.655-0.613-5.538-1.069-8.559-1.352
			c-1.758-2.504-3.58-4.781-5.41-6.752C34.438,12.074,34.93,11.623,35.419,11.197z M20.347,32.012
			c0.827-1.721,1.737-3.45,2.723-5.159l0,0c0.988-1.714,2.028-3.367,3.104-4.94c1.903-0.144,3.854-0.219,5.827-0.219l0,0
			c1.981,0,3.937,0.076,5.839,0.221c1.059,1.563,2.092,3.209,3.084,4.924c1.003,1.733,1.926,3.451,2.76,5.135
			c-0.832,1.711-1.752,3.447-2.75,5.178c-1.002,1.736-2.027,3.392-3.07,4.955C35.963,42.242,34,42.313,32,42.313
			c-1.991,0-3.929-0.062-5.794-0.183c-1.085-1.584-2.135-3.245-3.129-4.962h0.001C22.086,35.455,21.174,33.729,20.347,32.012z
			 M18.897,35.227c0.572,1.105,1.178,2.213,1.814,3.312l0,0c0.648,1.12,1.319,2.218,2.009,3.287
			c-2.096-0.233-4.072-0.552-5.898-0.948C17.388,39.052,18.084,37.155,18.897,35.227z M18.894,28.796
			c-0.796-1.888-1.477-3.745-2.033-5.538c1.826-0.409,3.773-0.743,5.802-0.996c-0.672,1.049-1.327,2.125-1.961,3.225l0,0
			C20.068,26.583,19.466,27.689,18.894,28.796z M43.3,38.52c0.652-1.131,1.271-2.264,1.856-3.392
			c0.855,1.949,1.576,3.836,2.148,5.63c-1.854,0.424-3.859,0.766-5.971,1.018C42,40.723,42.654,39.636,43.3,38.52z M45.13,28.798
			c-0.58-1.102-1.194-2.213-1.841-3.331c-0.635-1.094-1.283-2.162-1.946-3.201c2.042,0.258,3.999,0.601,5.837,1.02
			C46.627,25.055,45.939,26.903,45.13,28.798z M32.031,14.502c1.261,1.366,2.524,2.892,3.766,4.547
			c-1.251-0.059-2.52-0.09-3.797-0.09c-1.266,0-2.523,0.03-3.768,0.088C29.477,17.408,30.75,15.884,32.031,14.502z M17.288,6.704
			c2.142-1.239,6.876,0.528,11.866,4.958c0.318,0.283,0.639,0.58,0.96,0.887c-1.859,1.997-3.697,4.27-5.452,6.747
			c-3.01,0.279-5.891,0.727-8.54,1.327c-0.167-0.67-0.314-1.328-0.44-1.972C14.479,12.504,15.278,7.867,17.288,6.704z M14.167,40.21
			c-0.545-0.155-1.072-0.321-1.58-0.495c-3.12-1.066-5.697-2.451-7.464-3.965c-1.588-1.359-2.389-2.709-2.389-3.804
			c0-2.331,3.475-5.303,9.269-7.324c0.703-0.245,1.439-0.476,2.203-0.693c0.801,2.605,1.852,5.329,3.119,8.083
			C16.041,34.809,14.976,37.574,14.167,40.21z M28.983,52.673c-2.482,2.17-4.971,3.71-7.164,4.484
			c-1.971,0.696-3.54,0.716-4.489,0.169c-2.019-1.164-2.857-5.659-1.713-11.688c0.131-0.691,0.287-1.4,0.467-2.125
			c2.622,0.579,5.523,0.996,8.625,1.247c1.771,2.492,3.625,4.782,5.494,6.788C29.795,51.943,29.388,52.318,28.983,52.673z
			 M32.106,49.582c-1.296-1.398-2.589-2.945-3.851-4.607c1.226,0.047,2.475,0.072,3.744,0.072c1.306,0,2.595-0.029,3.864-0.087
			C34.617,46.654,33.359,48.203,32.106,49.582z M48.709,53.386c-0.381,2.056-1.146,3.425-2.096,3.974
			c-2.018,1.168-6.33-0.351-10.981-4.354c-0.532-0.459-1.069-0.947-1.608-1.467c1.804-1.973,3.604-4.266,5.365-6.813
			c3.094-0.274,6.016-0.724,8.666-1.336c0.131,0.526,0.247,1.043,0.348,1.549C49.042,48.174,49.134,51.1,48.709,53.386z
			 M51.029,39.73c-0.35,0.115-0.709,0.228-1.074,0.336c-0.811-2.563-1.903-5.291-3.241-8.107c1.277-2.75,2.328-5.442,3.115-7.989
			c0.653,0.189,1.29,0.389,1.901,0.6c5.924,2.039,9.535,5.053,9.535,7.376C61.268,34.42,57.365,37.631,51.029,39.73z"/>
		<circle fill="#53C1DE" cx="32" cy="31.946" r="5.715"/>
	</g>
</g>
<g id="Calque_8_-_copie" display="none">
	<g display="inline">
		<path fill="#FFFFFF" d="M52.621,21.985c-0.664-0.229-1.352-0.444-2.061-0.649c0.116-0.475,0.224-0.944,0.318-1.405
			c1.561-7.57,0.54-13.669-2.941-15.677c-3.34-1.926-8.799,0.082-14.313,4.881c-0.53,0.462-1.063,0.95-1.594,1.462
			c-0.354-0.339-0.708-0.666-1.061-0.979c-5.78-5.131-11.573-7.294-15.052-5.28c-3.335,1.931-4.323,7.664-2.919,14.839
			c0.136,0.693,0.294,1.4,0.473,2.12c-0.819,0.232-1.611,0.48-2.368,0.745C4.327,24.403,0,28.106,0,31.946
			c0,3.966,4.646,7.945,11.703,10.356c0.557,0.19,1.135,0.37,1.73,0.541c-0.193,0.778-0.361,1.541-0.503,2.284
			c-1.338,7.051-0.293,12.648,3.034,14.566c3.436,1.981,9.202-0.055,14.818-4.965c0.443-0.388,0.889-0.799,1.335-1.229
			c0.578,0.558,1.156,1.084,1.73,1.579c5.438,4.68,10.812,6.57,14.135,4.646c3.433-1.988,4.549-8.002,3.101-15.317
			c-0.11-0.56-0.24-1.13-0.384-1.712c0.404-0.118,0.802-0.242,1.189-0.37C59.227,39.895,64,35.965,64,31.946
			C64,28.092,59.533,24.365,52.621,21.985z M35.419,11.197c4.726-4.112,9.142-5.735,11.151-4.575
			c2.145,1.236,2.978,6.221,1.632,12.757c-0.086,0.417-0.185,0.842-0.288,1.272c-2.655-0.613-5.538-1.069-8.559-1.352
			c-1.758-2.504-3.58-4.781-5.41-6.752C34.438,12.074,34.93,11.623,35.419,11.197z M20.347,32.012
			c0.827-1.721,1.737-3.45,2.723-5.159l0,0c0.988-1.714,2.028-3.367,3.104-4.94c1.903-0.144,3.854-0.219,5.827-0.219l0,0
			c1.981,0,3.937,0.076,5.839,0.221c1.059,1.563,2.092,3.209,3.084,4.924c1.003,1.733,1.926,3.451,2.76,5.135
			c-0.832,1.711-1.752,3.447-2.75,5.178c-1.002,1.736-2.027,3.392-3.07,4.955C35.963,42.242,34,42.313,32,42.313
			c-1.991,0-3.929-0.062-5.794-0.183c-1.085-1.584-2.135-3.245-3.129-4.962h0.001C22.086,35.455,21.174,33.729,20.347,32.012z
			 M18.897,35.227c0.572,1.105,1.178,2.213,1.814,3.312l0,0c0.648,1.12,1.319,2.218,2.009,3.287
			c-2.096-0.233-4.072-0.552-5.898-0.948C17.388,39.052,18.084,37.155,18.897,35.227z M18.894,28.796
			c-0.796-1.888-1.477-3.745-2.033-5.538c1.826-0.409,3.773-0.743,5.802-0.996c-0.672,1.049-1.327,2.125-1.961,3.225l0,0
			C20.068,26.583,19.466,27.689,18.894,28.796z M43.3,38.52c0.652-1.131,1.271-2.264,1.856-3.392
			c0.855,1.949,1.576,3.836,2.148,5.63c-1.854,0.424-3.859,0.766-5.971,1.018C42,40.723,42.654,39.636,43.3,38.52z M45.13,28.798
			c-0.58-1.102-1.194-2.213-1.841-3.331c-0.635-1.094-1.283-2.162-1.946-3.201c2.042,0.258,3.999,0.601,5.837,1.02
			C46.627,25.055,45.939,26.903,45.13,28.798z M32.031,14.502c1.261,1.366,2.524,2.892,3.766,4.547
			c-1.251-0.059-2.52-0.09-3.797-0.09c-1.266,0-2.523,0.03-3.768,0.088C29.477,17.408,30.75,15.884,32.031,14.502z M17.288,6.704
			c2.142-1.239,6.876,0.528,11.866,4.958c0.318,0.283,0.639,0.58,0.96,0.887c-1.859,1.997-3.697,4.27-5.452,6.747
			c-3.01,0.279-5.891,0.727-8.54,1.327c-0.167-0.67-0.314-1.328-0.44-1.972C14.479,12.504,15.278,7.867,17.288,6.704z M14.167,40.21
			c-0.545-0.155-1.072-0.321-1.58-0.495c-3.12-1.066-5.697-2.451-7.464-3.965c-1.588-1.359-2.389-2.709-2.389-3.804
			c0-2.331,3.475-5.303,9.269-7.324c0.703-0.245,1.439-0.476,2.203-0.693c0.801,2.605,1.852,5.329,3.119,8.083
			C16.041,34.809,14.976,37.574,14.167,40.21z M28.983,52.673c-2.482,2.17-4.971,3.71-7.164,4.484
			c-1.971,0.696-3.54,0.716-4.489,0.169c-2.019-1.164-2.857-5.659-1.713-11.688c0.131-0.691,0.287-1.4,0.467-2.125
			c2.622,0.579,5.523,0.996,8.625,1.247c1.771,2.492,3.625,4.782,5.494,6.788C29.795,51.943,29.388,52.318,28.983,52.673z
			 M32.106,49.582c-1.296-1.398-2.589-2.945-3.851-4.607c1.226,0.047,2.475,0.072,3.744,0.072c1.306,0,2.595-0.029,3.864-0.087
			C34.617,46.654,33.359,48.203,32.106,49.582z M48.709,53.386c-0.381,2.056-1.146,3.425-2.096,3.974
			c-2.018,1.168-6.33-0.351-10.981-4.354c-0.532-0.459-1.069-0.947-1.608-1.467c1.804-1.973,3.604-4.266,5.365-6.813
			c3.094-0.274,6.016-0.724,8.666-1.336c0.131,0.526,0.247,1.043,0.348,1.549C49.042,48.174,49.134,51.1,48.709,53.386z
			 M51.029,39.73c-0.35,0.115-0.709,0.228-1.074,0.336c-0.811-2.563-1.903-5.291-3.241-8.107c1.277-2.75,2.328-5.442,3.115-7.989
			c0.653,0.189,1.29,0.389,1.901,0.6c5.924,2.039,9.535,5.053,9.535,7.376C61.268,34.42,57.365,37.631,51.029,39.73z"/>
		<circle fill="#FFFFFF" cx="32" cy="31.946" r="5.715"/>
	</g>
</g>
<g id="Calque_10" display="none">
	<rect x="0" display="inline" fill="#F7DF1E" width="64" height="64"/>
	<path display="inline" d="M42.992,50c1.289,2.105,2.966,3.652,5.932,3.652c2.492,0,4.084-1.246,4.084-2.967
		c0-2.063-1.635-2.793-4.378-3.992l-1.503-0.646c-4.34-1.85-7.225-4.166-7.225-9.063c0-4.509,3.438-7.942,8.809-7.942
		c3.824,0,6.572,1.331,8.555,4.813l-4.684,3.009c-1.031-1.851-2.145-2.578-3.871-2.578c-1.762,0-2.878,1.118-2.878,2.578
		c0,1.805,1.118,2.534,3.698,3.651l1.503,0.645c5.11,2.191,7.995,4.425,7.995,9.447c0,5.414-4.254,8.382-9.967,8.382
		c-5.584,0-9.192-2.662-10.959-6.15L42.992,50z M21.747,50.521c0.945,1.676,1.804,3.094,3.871,3.094
		c1.976,0,3.223-0.773,3.223-3.779v-20.45h6.015v20.531c0,6.228-3.651,9.062-8.98,9.062c-4.815,0-7.604-2.492-9.022-5.492
		L21.747,50.521z"/>
</g>
<g id="Calque_10_-_copie" display="none">
	<g display="inline">
		<path fill="#FFFFFF" d="M0,0v64h64V0H0z M34.854,49.917c0,6.228-3.65,9.062-8.979,9.062c-4.815,0-7.604-2.492-9.022-5.492
			l4.896-2.965c0.945,1.677,1.804,3.095,3.871,3.095c1.976,0,3.223-0.773,3.223-3.779v-20.45h6.014v20.53H34.854z M49.063,58.99
			c-5.584,0-9.192-2.662-10.959-6.15L42.992,50c1.289,2.105,2.966,3.652,5.932,3.652c2.492,0,4.084-1.246,4.084-2.967
			c0-2.063-1.635-2.793-4.378-3.992l-1.503-0.646c-4.34-1.85-7.225-4.166-7.225-9.063c0-4.509,3.438-7.942,8.809-7.942
			c3.824,0,6.572,1.331,8.555,4.813l-4.684,3.009c-1.031-1.851-2.145-2.578-3.871-2.578c-1.762,0-2.878,1.118-2.878,2.578
			c0,1.805,1.118,2.534,3.698,3.651l1.503,0.645c5.11,2.191,7.995,4.425,7.995,9.447C59.029,56.023,54.775,58.99,49.063,58.99z"/>
	</g>
</g>
<g id="Calque_12" display="none">
	<g display="inline">
		<path d="M64,31.998C64,49.672,49.673,64,31.999,64C14.326,64,0,49.672,0,31.998C0,14.327,14.325,0,31.999,0S64,14.327,64,31.998z"
			/>
		<path fill="#FFFFFF" d="M45.99,11.84c-3.252,0.111-6.088,1.906-8.201,4.382c-2.339,2.719-3.895,5.94-5.016,9.232
			c-2.005-1.645-3.551-3.772-6.771-4.698c-2.487-0.715-5.099-0.42-7.501,1.369c-1.136,0.849-1.921,2.132-2.294,3.343
			c-0.965,3.137,1.015,5.932,1.914,6.933l1.967,2.106c0.405,0.413,1.382,1.491,0.904,3.035c-0.514,1.681-2.54,2.767-4.617,2.128
			c-0.929-0.284-2.262-0.975-1.963-1.947c0.123-0.397,0.408-0.699,0.562-1.039c0.14-0.297,0.207-0.518,0.25-0.649
			c0.38-1.237-0.14-2.849-1.466-3.259c-1.239-0.381-2.506-0.08-2.997,1.514c-0.558,1.813,0.31,5.1,4.953,6.527
			c5.44,1.676,10.041-1.289,10.694-5.149c0.411-2.418-0.683-4.217-2.683-6.527l-1.631-1.805c-0.987-0.986-1.326-2.668-0.305-3.961
			c0.863-1.091,2.091-1.555,4.104-1.009c2.938,0.797,4.246,2.835,6.431,4.479c-0.9,2.959-1.491,5.931-2.023,8.593l-0.328,1.985
			c-1.562,8.188-2.754,12.688-5.852,15.271c-0.624,0.443-1.517,1.107-2.861,1.156c-0.706,0.021-0.934-0.465-0.943-0.677
			c-0.016-0.493,0.401-0.723,0.678-0.942c0.415-0.227,1.041-0.602,0.997-1.801c-0.044-1.418-1.219-2.647-2.916-2.592
			c-1.271,0.042-3.209,1.238-3.137,3.432c0.075,2.263,2.184,3.957,5.364,3.851c1.7-0.06,5.496-0.748,9.236-5.195
			c4.354-5.099,5.571-10.94,6.489-15.219l1.022-5.646c0.565,0.068,1.175,0.114,1.835,0.13c5.424,0.115,8.135-2.693,8.176-4.737
			c0.027-1.236-0.811-2.455-1.984-2.426c-0.84,0.023-1.895,0.583-2.146,1.744c-0.248,1.139,1.726,2.167,0.184,3.169
			c-1.096,0.708-3.059,1.207-5.825,0.802l0.502-2.779c1.026-5.271,2.293-11.754,7.097-11.913c0.352-0.017,1.631,0.015,1.66,0.863
			c0.008,0.281-0.063,0.355-0.393,1.002c-0.34,0.504-0.465,0.936-0.448,1.429c0.046,1.344,1.067,2.229,2.551,2.178
			c1.981-0.066,2.55-1.995,2.519-2.986C51.691,13.205,49.236,11.732,45.99,11.84z"/>
	</g>
</g>
<g id="Calque_12_-_copie" display="none">
	<g display="inline">
		<path fill="#FFFFFF" d="M31.999,0C14.325,0,0,14.327,0,31.998C0,49.672,14.326,64,31.999,64C49.673,64,64,49.672,64,31.998
			C64,14.327,49.673,0,31.999,0z M49.259,18.521c-1.481,0.051-2.505-0.834-2.551-2.178c-0.017-0.493,0.108-0.925,0.448-1.429
			c0.33-0.647,0.4-0.721,0.393-1.002c-0.029-0.848-1.311-0.879-1.66-0.863c-4.804,0.159-6.07,6.642-7.097,11.913l-0.502,2.779
			c2.767,0.405,4.729-0.094,5.825-0.802c1.542-1.001-0.432-2.03-0.184-3.169c0.252-1.161,1.307-1.721,2.146-1.744
			c1.175-0.029,2.013,1.189,1.984,2.426c-0.041,2.044-2.752,4.852-8.176,4.737c-0.66-0.016-1.27-0.062-1.834-0.13l-1.023,5.646
			c-0.918,4.277-2.135,10.12-6.489,15.219c-3.74,4.447-7.536,5.137-9.236,5.195c-3.181,0.107-5.289-1.588-5.364-3.852
			c-0.072-2.191,1.865-3.389,3.137-3.431c1.697-0.057,2.872,1.174,2.916,2.591c0.044,1.2-0.582,1.575-0.997,1.801
			c-0.276,0.222-0.693,0.449-0.678,0.943c0.01,0.212,0.237,0.697,0.943,0.678c1.345-0.05,2.237-0.714,2.861-1.158
			c3.098-2.582,4.29-7.08,5.852-15.27l0.328-1.986c0.532-2.662,1.123-5.631,2.023-8.592c-2.185-1.645-3.493-3.683-6.431-4.479
			c-2.013-0.546-3.24-0.082-4.104,1.009c-1.021,1.292-0.683,2.975,0.305,3.961l1.631,1.805c2,2.31,3.094,4.109,2.683,6.527
			c-0.653,3.861-5.254,6.825-10.694,5.15c-4.644-1.431-5.511-4.717-4.953-6.528c0.491-1.595,1.758-1.895,2.997-1.515
			c1.326,0.41,1.846,2.021,1.466,3.26c-0.043,0.133-0.11,0.354-0.25,0.65c-0.153,0.34-0.438,0.641-0.562,1.039
			c-0.299,0.973,1.034,1.662,1.963,1.946c2.077,0.64,4.104-0.446,4.617-2.128c0.478-1.544-0.499-2.622-0.904-3.035L18.122,32.4
			c-0.899-1.001-2.879-3.796-1.914-6.933c0.373-1.21,1.158-2.494,2.294-3.343c2.402-1.79,5.014-2.084,7.501-1.369
			c3.219,0.926,4.765,3.053,6.771,4.698c1.121-3.292,2.677-6.513,5.016-9.232c2.113-2.476,4.95-4.271,8.201-4.382
			c3.246-0.107,5.701,1.365,5.785,3.696C51.809,16.527,51.24,18.455,49.259,18.521z"/>
	</g>
</g>
<g id="Calque_16" display="none">
	<g display="inline">
		<rect x="0" y="3.726" fill="#FFFFFF" width="64" height="56.549"/>
		<path fill="#ED2224" d="M40.296,3.726L64,60.273V3.726H40.296z M0,3.726v56.549L23.704,3.726H0z M21.672,48.764h10.836
			l4.741,11.512h9.819L31.831,24.38L21.672,48.764z"/>
	</g>
</g>
<g id="Calque_16_-_copie" display="none">
	<path display="inline" fill="#FFFFFF" d="M40.296,3.726L64,60.273V3.726H40.296z M0,3.726v56.549L23.704,3.726H0z M21.672,48.764
		h10.836l4.741,11.512h9.819L31.831,24.38L21.672,48.764z"/>
</g>
<g id="Calque_18" display="none">
	<g display="inline">
		
			<radialGradient id="SVGID_3_" cx="-331.8237" cy="476.998" r="0.0205" gradientTransform="matrix(2291.6716 0 0 2218.7549 760452.625 -1058327.5)" gradientUnits="userSpaceOnUse">
			<stop  offset="0" style="stop-color:#34364E;stop-opacity:0.98"/>
			<stop  offset="1" style="stop-color:#0C0824"/>
		</radialGradient>
		<path fill="url(#SVGID_3_)" d="M2.667,3.467h58.667v57.067H2.667V3.467z"/>
		<path fill="#31C5F0" d="M2.667,3.467h58.667v57.067H2.667V3.467z M0,63.2h64V0.8H0V63.2z M43.147,26.4
			c-2.106,0-2.826,1.066-2.826,1.946c0,0.96,0.479,1.627,3.307,3.094c4.188,2.026,5.493,3.974,5.493,6.828
			c0,4.267-3.253,6.56-7.653,6.56c-2.318,0-4.318-0.479-5.466-1.146c-0.188-0.08-0.214-0.215-0.214-0.428v-3.92
			c0-0.268,0.134-0.348,0.32-0.214c1.68,1.094,3.6,1.573,5.358,1.573c2.107,0,2.987-0.881,2.987-2.08
			c0-0.961-0.613-1.813-3.307-3.199c-3.787-1.813-5.36-3.653-5.36-6.721c0-3.439,2.692-6.293,7.36-6.293
			c2.293,0,3.893,0.347,4.772,0.746c0.213,0.134,0.267,0.347,0.267,0.533v3.653c0,0.214-0.134,0.347-0.399,0.267
			C46.613,26.854,44.881,26.4,43.147,26.4L43.147,26.4z M20.214,29.573c0.613,0.054,1.094,0.054,2.16,0.054
			c3.12,0,6.053-1.094,6.053-5.333c0-3.387-2.106-5.094-5.653-5.094c-1.066,0-2.08,0.054-2.56,0.08V29.573z M15.467,15.413
			c0-0.187,0.374-0.319,0.587-0.319c1.707-0.08,4.24-0.134,6.88-0.134c7.387,0,10.267,4.054,10.267,9.227
			c0,6.773-4.906,9.681-10.933,9.681c-1.014,0-1.36-0.054-2.081-0.054v10.24c0,0.213-0.08,0.319-0.319,0.319h-4.08
			c-0.214,0-0.32-0.08-0.32-0.319L15.467,15.413L15.467,15.413z"/>
	</g>
</g>
<g id="Calque_18_-_copie" display="none">
	<path display="inline" fill="#FFFFFF" d="M2.667,3.467h58.667v57.067H2.667V3.467z M0,63.2h64V0.8H0V63.2z M43.147,26.4
		c-2.106,0-2.826,1.066-2.826,1.946c0,0.96,0.479,1.627,3.307,3.094c4.188,2.026,5.493,3.974,5.493,6.828
		c0,4.267-3.253,6.56-7.653,6.56c-2.318,0-4.318-0.479-5.466-1.146c-0.188-0.08-0.214-0.215-0.214-0.428v-3.92
		c0-0.268,0.134-0.348,0.32-0.214c1.68,1.094,3.6,1.573,5.358,1.573c2.107,0,2.987-0.881,2.987-2.08
		c0-0.961-0.613-1.813-3.307-3.199c-3.787-1.813-5.36-3.653-5.36-6.721c0-3.439,2.692-6.293,7.36-6.293
		c2.293,0,3.893,0.347,4.772,0.746c0.213,0.134,0.267,0.347,0.267,0.533v3.653c0,0.214-0.134,0.347-0.399,0.267
		C46.613,26.854,44.881,26.4,43.147,26.4L43.147,26.4z M20.214,29.573c0.613,0.054,1.094,0.054,2.16,0.054
		c3.12,0,6.053-1.094,6.053-5.333c0-3.387-2.106-5.094-5.653-5.094c-1.066,0-2.08,0.054-2.56,0.08V29.573z M15.467,15.413
		c0-0.187,0.374-0.319,0.587-0.319c1.707-0.08,4.24-0.134,6.88-0.134c7.387,0,10.267,4.054,10.267,9.227
		c0,6.773-4.906,9.681-10.933,9.681c-1.014,0-1.36-0.054-2.081-0.054v10.24c0,0.213-0.08,0.319-0.319,0.319h-4.08
		c-0.214,0-0.32-0.08-0.32-0.319L15.467,15.413L15.467,15.413z"/>
</g>
<g id="Calque_20">
	<g>
		<path fill="#00546B" d="M58.951,49.18c-3.482-0.088-6.182,0.26-8.445,1.219c-0.652,0.261-1.697,0.261-1.783,1.088
			c0.348,0.349,0.391,0.914,0.695,1.394c0.523,0.87,1.438,2.045,2.264,2.655c0.914,0.695,1.828,1.393,2.785,2.002
			c1.699,1.045,3.613,1.654,5.268,2.697c0.959,0.609,1.916,1.395,2.873,2.047c0.479,0.348,0.783,0.914,1.394,1.132v-0.13
			c-0.306-0.393-0.394-0.958-0.694-1.395c-0.437-0.436-0.871-0.826-1.308-1.263c-1.263-1.696-2.83-3.177-4.526-4.396
			c-1.394-0.959-4.439-2.265-5.007-3.875c0,0-0.043-0.043-0.086-0.086c0.957-0.088,2.088-0.437,3.002-0.697
			c1.479-0.393,2.83-0.305,4.354-0.696c0.697-0.174,1.393-0.392,2.09-0.608v-0.393c-0.783-0.783-1.35-1.828-2.176-2.568
			c-2.221-1.914-4.658-3.787-7.185-5.354c-1.35-0.871-3.09-1.438-4.526-2.178c-0.521-0.262-1.394-0.392-1.697-0.826
			c-0.783-0.957-1.219-2.221-1.785-3.352c-1.262-2.396-2.48-5.051-3.568-7.575c-0.783-1.698-1.262-3.396-2.221-4.962
			c-4.482-7.4-9.358-11.883-16.845-16.28c-1.61-0.914-3.526-1.306-5.571-1.784c-1.088-0.044-2.177-0.13-3.265-0.174
			C12.29,4.518,11.594,3.691,10.985,3.3C8.501,1.732,2.103-1.663,0.274,2.821C-0.901,5.65,2.016,8.436,3.017,9.873
			c0.74,1.001,1.698,2.132,2.22,3.264c0.305,0.74,0.392,1.524,0.696,2.307c0.697,1.915,1.349,4.048,2.264,5.833
			c0.479,0.914,1.001,1.871,1.61,2.698c0.348,0.479,0.958,0.697,1.088,1.48c-0.609,0.871-0.653,2.177-1.001,3.265
			c-1.567,4.919-0.958,11.015,1.262,14.626c0.696,1.088,2.351,3.482,4.571,2.568c1.959-0.783,1.523-3.266,2.089-5.441
			c0.131-0.521,0.044-0.869,0.305-1.219v0.088c0.609,1.219,1.219,2.395,1.785,3.612c1.349,2.133,3.7,4.353,5.658,5.833
			c1.045,0.783,1.872,2.133,3.178,2.611v-0.131h-0.087c-0.261-0.393-0.653-0.565-1.001-0.871c-0.783-0.782-1.654-1.74-2.264-2.611
			c-1.828-2.438-3.438-5.137-4.875-7.922c-0.696-1.35-1.306-2.829-1.872-4.178c-0.262-0.523-0.262-1.308-0.697-1.567
			c-0.653,0.957-1.61,1.784-2.089,2.96c-0.827,1.871-0.914,4.179-1.219,6.572c-0.174,0.043-0.087,0-0.174,0.086
			c-1.393-0.348-1.871-1.783-2.394-3.002c-1.306-3.092-1.523-8.053-0.392-11.624c0.305-0.915,1.611-3.787,1.088-4.658
			c-0.261-0.827-1.132-1.306-1.611-1.958c-0.565-0.827-1.175-1.872-1.567-2.786c-1.044-2.438-1.567-5.136-2.699-7.574
			c-0.522-1.132-1.436-2.307-2.176-3.352C3.887,7.609,2.973,6.781,2.32,5.389C2.103,4.91,1.798,4.126,2.146,3.604
			c0.087-0.348,0.261-0.479,0.609-0.565C3.321,2.56,4.932,3.169,5.497,3.43c1.611,0.653,2.96,1.263,4.31,2.177
			c0.609,0.435,1.262,1.262,2.045,1.48h0.915c1.393,0.305,2.959,0.087,4.266,0.479c2.307,0.74,4.396,1.828,6.268,3.003
			c5.703,3.613,10.404,8.75,13.582,14.887c0.521,1.001,0.738,1.916,1.219,2.96c0.914,2.133,2.045,4.311,2.959,6.398
			c0.914,2.045,1.785,4.136,3.09,5.834c0.654,0.912,3.267,1.393,4.441,1.871c0.869,0.392,2.219,0.739,3.002,1.219
			c1.48,0.914,2.961,1.959,4.354,2.96C56.645,47.22,58.82,48.309,58.951,49.18L58.951,49.18z"/>
		<path fill="#00546B" d="M14.551,11.352c-0.74,0-1.262,0.088-1.784,0.218v0.087h0.087c0.349,0.696,0.958,1.175,1.393,1.785
			c0.349,0.696,0.653,1.393,1.001,2.089c0.043-0.044,0.087-0.087,0.087-0.087c0.61-0.436,0.914-1.132,0.914-2.177
			c-0.261-0.305-0.305-0.609-0.522-0.914C15.466,11.917,14.899,11.7,14.551,11.352L14.551,11.352z"/>
	</g>
</g>
<g id="Calque_20_-_copie" display="none">
	<g display="inline">
		<path fill="#FFFFFF" d="M58.951,49.18c-3.482-0.088-6.182,0.26-8.445,1.219c-0.652,0.261-1.697,0.261-1.783,1.088
			c0.348,0.349,0.391,0.914,0.695,1.394c0.523,0.87,1.438,2.045,2.264,2.655c0.914,0.695,1.828,1.393,2.785,2.002
			c1.699,1.045,3.613,1.654,5.268,2.697c0.959,0.609,1.916,1.395,2.873,2.047c0.479,0.348,0.783,0.914,1.394,1.132v-0.13
			c-0.306-0.393-0.394-0.958-0.694-1.395c-0.437-0.436-0.871-0.826-1.308-1.263c-1.263-1.696-2.83-3.177-4.526-4.396
			c-1.394-0.959-4.439-2.265-5.007-3.875c0,0-0.043-0.043-0.086-0.086c0.957-0.088,2.088-0.437,3.002-0.697
			c1.479-0.393,2.83-0.305,4.354-0.696c0.697-0.174,1.393-0.392,2.09-0.608v-0.393c-0.783-0.783-1.35-1.828-2.176-2.568
			c-2.221-1.914-4.658-3.787-7.185-5.354c-1.35-0.871-3.09-1.438-4.526-2.178c-0.521-0.262-1.394-0.392-1.697-0.826
			c-0.783-0.957-1.219-2.221-1.785-3.352c-1.262-2.396-2.48-5.051-3.568-7.575c-0.783-1.698-1.262-3.396-2.221-4.962
			c-4.482-7.4-9.358-11.883-16.845-16.28c-1.61-0.914-3.526-1.306-5.571-1.784c-1.088-0.044-2.177-0.13-3.265-0.174
			C12.29,4.518,11.594,3.691,10.985,3.3C8.501,1.732,2.103-1.663,0.274,2.821C-0.901,5.65,2.016,8.436,3.017,9.873
			c0.74,1.001,1.698,2.132,2.22,3.264c0.305,0.74,0.392,1.524,0.696,2.307c0.697,1.915,1.349,4.048,2.264,5.833
			c0.479,0.914,1.001,1.871,1.61,2.698c0.348,0.479,0.958,0.697,1.088,1.48c-0.609,0.871-0.653,2.177-1.001,3.265
			c-1.567,4.919-0.958,11.015,1.262,14.626c0.696,1.088,2.351,3.482,4.571,2.568c1.959-0.783,1.523-3.266,2.089-5.441
			c0.131-0.521,0.044-0.869,0.305-1.219v0.088c0.609,1.219,1.219,2.395,1.785,3.612c1.349,2.133,3.7,4.353,5.658,5.833
			c1.045,0.783,1.872,2.133,3.178,2.611v-0.131h-0.087c-0.261-0.393-0.653-0.565-1.001-0.871c-0.783-0.782-1.654-1.74-2.264-2.611
			c-1.828-2.438-3.438-5.137-4.875-7.922c-0.696-1.35-1.306-2.829-1.872-4.178c-0.262-0.523-0.262-1.308-0.697-1.567
			c-0.653,0.957-1.61,1.784-2.089,2.96c-0.827,1.871-0.914,4.179-1.219,6.572c-0.174,0.043-0.087,0-0.174,0.086
			c-1.393-0.348-1.871-1.783-2.394-3.002c-1.306-3.092-1.523-8.053-0.392-11.624c0.305-0.915,1.611-3.787,1.088-4.658
			c-0.261-0.827-1.132-1.306-1.611-1.958c-0.565-0.827-1.175-1.872-1.567-2.786c-1.044-2.438-1.567-5.136-2.699-7.574
			c-0.522-1.132-1.436-2.307-2.176-3.352C3.887,7.609,2.973,6.781,2.32,5.389C2.103,4.91,1.798,4.126,2.146,3.604
			c0.087-0.348,0.261-0.479,0.609-0.565C3.321,2.56,4.932,3.169,5.497,3.43c1.611,0.653,2.96,1.263,4.31,2.177
			c0.609,0.435,1.262,1.262,2.045,1.48h0.915c1.393,0.305,2.959,0.087,4.266,0.479c2.307,0.74,4.396,1.828,6.268,3.003
			c5.703,3.613,10.404,8.75,13.582,14.887c0.521,1.001,0.738,1.916,1.219,2.96c0.914,2.133,2.045,4.311,2.959,6.398
			c0.914,2.045,1.785,4.136,3.09,5.834c0.654,0.912,3.267,1.393,4.441,1.871c0.869,0.392,2.219,0.739,3.002,1.219
			c1.48,0.914,2.961,1.959,4.354,2.96C56.645,47.22,58.82,48.309,58.951,49.18L58.951,49.18z"/>
		<path fill="#FFFFFF" d="M14.551,11.352c-0.74,0-1.262,0.088-1.784,0.218v0.087h0.087c0.349,0.696,0.958,1.175,1.393,1.785
			c0.349,0.696,0.653,1.393,1.001,2.089c0.043-0.044,0.087-0.087,0.087-0.087c0.61-0.436,0.914-1.132,0.914-2.177
			c-0.261-0.305-0.305-0.609-0.522-0.914C15.466,11.917,14.899,11.7,14.551,11.352L14.551,11.352z"/>
	</g>
</g>
<g id="Calque_20_-_copie_2" display="none">
	<rect x="0" display="inline" fill="#FFFFFF" width="64" height="64"/>
	<g transform="matrix(.569 0 0 .569 199.451 -82.735)" display="inline">
		
			<linearGradient id="SVGID_4_" gradientUnits="userSpaceOnUse" x1="-24854.9473" y1="13503.4248" x2="-24815.9141" y2="13526.4883" gradientTransform="matrix(0.0675 0 0 -0.0675 1350.2595 1158.6276)">
			<stop  offset="0" style="stop-color:#909CA9"/>
			<stop  offset="1" style="stop-color:#EDEDEE"/>
		</linearGradient>
		<path fill="url(#SVGID_4_)" d="M-280.79,197.913l-22.525,7.355l-19.596,8.65l-5.483,1.447c-1.396,1.328-2.86,2.674-4.443,4.035
			c-1.737,1.498-3.354,2.861-4.597,3.848c-1.379,1.09-3.422,3.132-4.461,4.426c-1.55,1.941-2.774,4.001-3.303,5.585
			c-0.937,2.861-0.477,5.755,1.328,8.429c2.314,3.405,6.929,6.877,12.31,9.244c2.741,1.212,7.355,2.76,10.829,3.626
			c5.771,1.464,16.941,3.048,23.087,3.287c1.243,0.051,2.912,0.051,2.979,0c0.136-0.086,1.09-1.907,2.196-4.171
			c3.781-7.715,6.505-14.951,7.986-21.131c0.886-3.745,1.584-8.734,2.042-14.643c0.12-1.649,0.17-7.183,0.069-9.055
			c-0.154-3.065-0.426-5.55-0.851-7.988c-0.069-0.357-0.086-0.68-0.051-0.699c0.069-0.051,0.275-0.118,3.048-0.918L-280.79,197.913
			L-280.79,197.913L-280.79,197.913L-280.79,197.913z M-285.932,200.927c0.203,0,0.748,5.227,0.886,8.532
			c0.034,0.697,0.015,1.157-0.017,1.157c-0.136,0-2.876-1.617-4.836-2.842c-1.699-1.074-4.935-3.22-5.447-3.628
			c-0.17-0.118-0.154-0.137,1.243-0.614C-291.738,202.731-286.119,200.927-285.932,200.927z M-297.408,204.707
			c0.154,0,0.545,0.221,1.48,0.8c3.508,2.199,8.276,4.855,10.318,5.738c0.628,0.275,0.697,0.173-0.748,1.158
			c-3.1,2.111-6.965,4.189-11.696,6.283c-0.834,0.374-1.534,0.662-1.55,0.662c-0.033,0,0.069-0.424,0.203-0.935
			c1.14-4.239,1.788-8.532,1.822-11.969c0.017-1.703,0.017-1.703,0.171-1.754C-297.441,204.707-297.425,204.707-297.408,204.707
			L-297.408,204.707z M-299.773,205.61c0.101,0.101,0.033,3.915-0.103,4.953c-0.306,2.487-0.783,4.802-1.565,7.407
			c-0.188,0.63-0.36,1.157-0.392,1.191c-0.068,0.086-2.401-2.197-3.167-3.081c-1.328-1.534-2.368-3.065-3.133-4.565
			c-0.391-0.765-1.004-2.262-0.953-2.314C-308.814,209.015-299.841,205.541-299.773,205.61L-299.773,205.61z M-310.908,209.984
			c0.015,0,0.033,0,0.051,0.017c0.033,0.034,0.154,0.305,0.257,0.613c0.544,1.481,1.769,3.661,2.826,5.058
			c1.158,1.531,2.673,3.167,3.932,4.239c0.408,0.34,0.783,0.664,0.834,0.714c0.103,0.103,0.136,0.086-2.64,1.14
			c-3.215,1.225-6.724,2.453-10.741,3.745c-0.96,0.312-1.921,0.621-2.878,0.937c-0.153,0.051-0.101-0.033,0.342-0.731
			c1.992-3.117,5.024-9.227,6.724-13.552c0.289-0.748,0.579-1.5,0.631-1.668c0.069-0.24,0.154-0.324,0.373-0.443
			C-311.079,210.019-310.96,209.984-310.908,209.984L-310.908,209.984z M-314.313,211.399c0.051,0.034-0.818,1.855-1.669,3.525
			c-1.652,3.216-3.457,6.385-5.874,10.232c-0.408,0.662-0.8,1.277-0.851,1.346c-0.085,0.117-0.118,0.086-0.391-0.443
			c-0.578-1.143-1.056-2.605-1.31-3.951c-0.256-1.328-0.205-3.645,0.085-5.073c0.221-1.057,0.204-1.038,0.716-1.294
			C-321.43,214.632-314.382,211.33-314.313,211.399L-314.313,211.399z M-284.945,212.59v0.714c0,3.798-0.408,9.007-1.004,12.805
			c-0.103,0.664-0.187,1.208-0.204,1.225c0,0-0.494-0.136-1.073-0.307c-2.554-0.8-5.329-1.975-7.831-3.354
			c-1.653-0.903-4.053-2.384-3.983-2.454c0.016-0.014,0.732-0.391,1.565-0.834c3.337-1.733,6.537-3.608,9.313-5.465
			c1.04-0.699,2.605-1.819,2.949-2.128L-284.945,212.59L-284.945,212.59z M-327.168,217.629c0.068,0,0.051,0.137-0.051,0.75
			c-0.068,0.445-0.154,1.261-0.186,1.821c-0.136,2.485,0.273,4.325,1.497,6.845c0.34,0.7,0.613,1.277,0.596,1.294
			c-0.119,0.103-11.39,3.405-14.932,4.377c-1.056,0.288-1.975,0.546-2.043,0.563c-0.118,0.034-0.136,0.017-0.085-0.275
			c0.391-2.501,2.298-5.77,4.956-8.53c1.769-1.836,3.184-2.911,5.6-4.291c1.738-0.987,4.411-2.468,4.614-2.537
			C-327.202,217.629-327.185,217.629-327.168,217.629L-327.168,217.629z M-300.608,222.379c0.015-0.017,0.425,0.203,0.918,0.494
			c3.645,2.111,8.715,4.068,13.04,5.073l0.391,0.082l-0.542,0.309c-2.265,1.26-9.706,4.356-17.317,7.202
			c-1.107,0.408-2.196,0.817-2.399,0.903c-0.205,0.082-0.392,0.137-0.392,0.12s0.307-0.614,0.699-1.346
			c2.128-3.985,4.274-8.839,5.363-12.21C-300.71,222.685-300.625,222.396-300.608,222.379L-300.608,222.379z M-303.315,223.265
			c0.017,0.017-0.119,0.374-0.289,0.783c-1.481,3.592-3.421,7.51-5.907,11.901c-0.631,1.126-1.158,2.029-1.176,2.029
			c-0.016,0-0.529-0.305-1.14-0.681c-3.61-2.212-6.811-4.938-8.904-7.577l-0.307-0.374l1.549-0.426
			c5.55-1.514,10.268-3.151,14.95-5.159C-303.877,223.486-303.332,223.265-303.315,223.265z M-286.495,229.138
			C-286.495,229.138-286.477,229.155-286.495,229.138c0.017,0.391-0.851,3.899-1.565,6.436c-0.597,2.128-1.107,3.796-2.044,6.743
			c-0.407,1.292-0.765,2.365-0.783,2.365c-0.019,0-0.118-0.015-0.221-0.05c-5.056-0.92-9.585-2.197-13.842-3.899
			c-1.192-0.477-2.895-1.243-2.997-1.328c-0.033-0.034,0.989-0.51,2.283-1.073c7.746-3.388,15.782-7.236,18.542-8.887
			C-286.8,229.241-286.544,229.138-286.495,229.138L-286.495,229.138z M-325.33,230.466c0.033,0.034-2.127,3.148-5.159,7.389
			c-1.056,1.483-2.28,3.22-2.741,3.865c-0.459,0.647-1.158,1.67-1.549,2.283l-0.716,1.107l-0.766-0.649
			c-0.902-0.748-2.468-2.348-3.167-3.233c-1.465-1.823-2.453-3.747-2.844-5.501c-0.187-0.817-0.187-1.224-0.017-1.275
			c0.257-0.069,4.801-1.14,9.059-2.128c2.368-0.546,5.109-1.193,6.095-1.431C-326.147,230.655-325.346,230.466-325.33,230.466
			L-325.33,230.466z M-323.15,231.301l0.544,0.614c2.453,2.741,4.955,4.766,7.986,6.536c0.545,0.309,0.953,0.58,0.919,0.597
			c-0.119,0.084-10.522,3.779-15.34,5.449c-2.707,0.953-4.937,1.718-4.954,1.718c-0.015,0-0.171-0.101-0.342-0.221l-0.306-0.221
			l0.494-0.714c1.6-2.314,3.608-4.854,7.984-10.129L-323.15,231.301L-323.15,231.301z M-309.564,241.023
			c0.018-0.017,0.766,0.254,1.686,0.596c2.213,0.834,3.967,1.363,6.317,1.958c2.894,0.731,7.082,1.447,9.55,1.651
			c0.376,0.034,0.58,0.069,0.511,0.12c-0.12,0.067-2.622,0.901-4.461,1.481c-2.928,0.916-11.867,3.558-19.155,5.652
			c-1.346,0.391-2.501,0.716-2.571,0.731c-0.17,0.036-0.732-0.118-0.732-0.187c0-0.034,0.408-0.561,0.902-1.14
			c2.453-2.931,4.886-6.197,6.913-9.297C-310.04,241.737-309.564,241.039-309.564,241.023L-309.564,241.023z M-312.56,241.107
			c0.017,0.017-1.192,1.957-3.303,5.296c-0.904,1.411-1.909,3.01-2.266,3.573c-0.341,0.546-0.85,1.397-1.14,1.874l-0.493,0.867
			l-0.255-0.069c-0.614-0.17-4.921-1.685-6.061-2.145c-1.414-0.561-2.877-1.243-3.967-1.821c-1.362-0.733-3.064-1.823-2.929-1.855
			c0.033-0.017,2.366-0.649,5.175-1.412c7.457-2.025,11.594-3.203,14.303-4.054C-313.003,241.21-312.578,241.09-312.56,241.107
			L-312.56,241.107z M-291.364,246.079h0.015c0.07,0.17-2.688,7.831-3.693,10.25c-0.221,0.544-0.306,0.681-0.425,0.664
			c-0.29-0.017-4.292-0.578-6.726-0.937c-4.239-0.647-11.357-1.891-13.143-2.298l-0.409-0.084l2.538-0.58
			c5.448-1.225,8.07-1.89,10.726-2.707c3.354-1.023,6.675-2.3,10.027-3.865C-291.925,246.284-291.482,246.097-291.364,246.079
			L-291.364,246.079z"/>
		
			<linearGradient id="SVGID_5_" gradientUnits="userSpaceOnUse" x1="-24846.5996" y1="14844.0938" x2="-24815.1934" y2="14844.0938" gradientTransform="matrix(0.0675 0 0 -0.0675 1350.2595 1158.6276)">
			<stop  offset="0" style="stop-color:#939FAB"/>
			<stop  offset="1" style="stop-color:#DCDEE1"/>
		</linearGradient>
		<path fill="url(#SVGID_5_)" d="M-304.013,145.405c-0.375-0.051-6.419,2.128-10.317,3.711c-5.262,2.146-9.348,4.189-11.867,5.961
			c-0.935,0.662-2.112,1.837-2.299,2.298c-0.068,0.171-0.102,0.373-0.102,0.578l2.283,2.163l5.431,1.737l12.923,2.314l14.777,2.538
			l0.154-1.278c-0.051,0-0.086-0.016-0.137-0.016l-1.94-0.305l-0.391-0.699c-2.009-3.542-4.223-7.933-5.516-10.897
			c-1.004-2.299-1.957-4.954-2.486-6.862C-303.791,145.49-303.826,145.422-304.013,145.405L-304.013,145.405L-304.013,145.405
			L-304.013,145.405z M-304.286,146.274h0.016c0.016,0.016,0.085,0.493,0.154,1.056c0.288,2.384,0.818,4.682,1.652,7.168
			c0.63,1.872,0.63,1.77-0.102,1.55c-1.736-0.476-9.517-1.823-15.152-2.604c-0.903-0.119-1.669-0.239-1.669-0.255
			c-0.069-0.07,4.068-2.231,5.891-3.082C-311.164,149.032-304.762,146.359-304.286,146.274L-304.286,146.274z M-320.698,153.902
			l0.664,0.221c3.609,1.225,12.684,2.962,17.691,3.371c0.56,0.051,1.038,0.102,1.056,0.102c0.016,0.017-0.459,0.273-1.073,0.562
			c-2.418,1.208-5.073,2.69-6.912,3.831c-0.545,0.342-1.037,0.614-1.107,0.614c-0.068,0-0.426-0.069-0.8-0.12l-0.681-0.102
			l-1.703-1.667c-2.997-2.913-5.346-5.159-6.248-6.01L-320.698,153.902z M-321.379,154.429l2.4,2.997
			c1.31,1.651,2.639,3.269,2.929,3.626c0.287,0.358,0.528,0.648,0.511,0.663c-0.069,0.051-3.474-0.613-5.278-1.02
			c-1.856-0.426-2.622-0.631-3.762-0.989l-0.936-0.305v-0.239c0.016-1.14,1.463-2.843,3.915-4.58L-321.379,154.429L-321.379,154.429
			z M-300.983,158.516c0.069,0,0.153,0.154,0.358,0.612c0.578,1.279,2.383,4.717,2.827,5.381c0.136,0.221,0.373,0.239-2.026-0.154
			c-5.773-0.935-7.628-1.243-7.628-1.276c0-0.017,0.17-0.136,0.392-0.257c1.788-0.987,3.591-2.247,5.193-3.592
			c0.391-0.324,0.748-0.631,0.817-0.681C-301.033,158.516-301,158.499-300.983,158.516L-300.983,158.516z"/>
		
			<radialGradient id="SVGID_6_" cx="-21136.7012" cy="28443.8262" r="41.6977" gradientTransform="matrix(-0.0649 -0.0097 -0.0197 0.1297 -1106.161 -3710.4209)" gradientUnits="userSpaceOnUse">
			<stop  offset="0" style="stop-color:#EE352C"/>
			<stop  offset="1" style="stop-color:#A91D22"/>
		</radialGradient>
		<path fill="url(#SVGID_6_)" d="M-328.377,157.137c0,0-0.374,0.596-0.017,1.48c0.221,0.545,0.868,1.209,1.6,1.89
			c0,0,7.577,7.389,8.496,8.446c4.188,4.835,6.01,9.602,6.18,16.174c0.1,4.221-0.699,7.933-2.69,12.24
			c-3.542,7.73-11.016,16.26-22.542,25.727l1.685-0.561c1.09-0.819,2.571-1.685,6.046-3.594c8.018-4.392,17.042-8.427,28.108-12.582
			c15.937-5.993,42.137-13.008,57.053-15.289l1.55-0.239l-0.239-0.375c-1.364-2.11-2.298-3.421-3.422-4.818
			c-3.27-4.053-7.236-7.338-12.088-10.063c-6.676-3.729-15.307-6.639-26.238-8.802c-2.06-0.408-6.587-1.192-10.265-1.754
			c-7.798-1.208-12.838-2.042-18.388-2.997c-1.992-0.34-4.971-0.851-6.947-1.276c-1.022-0.222-2.979-0.681-4.512-1.209
			C-326.232,159.06-328.002,158.583-328.377,157.137L-328.377,157.137z M-323.984,161.393c0.016-0.017,0.289,0.084,0.647,0.203
			c0.646,0.221,1.481,0.477,2.469,0.75c0.747,0.205,1.497,0.403,2.247,0.596c1.021,0.255,1.872,0.493,1.89,0.493
			c0.119,0.119,1.838,5.617,2.418,7.728c0.221,0.801,0.391,1.481,0.373,1.481c-0.017,0.017-0.203-0.272-0.427-0.662
			c-1.991-3.507-5.141-7.066-8.785-9.926C-323.626,161.716-323.984,161.409-323.984,161.393L-323.984,161.393z M-315.608,163.708
			c0.086,0,0.46,0.051,0.92,0.153c2.894,0.648,8.087,1.635,11.406,2.197c0.563,0.085,1.006,0.187,1.006,0.221
			c0,0.034-0.205,0.154-0.461,0.29c-0.561,0.288-2.827,1.635-3.575,2.144c-1.89,1.261-3.592,2.622-4.818,3.848
			c-0.493,0.494-0.92,0.903-0.92,0.903s-0.101-0.288-0.186-0.647c-0.614-2.367-1.891-5.874-3.046-8.343
			c-0.188-0.39-0.342-0.747-0.342-0.783C-315.625,163.726-315.625,163.708-315.608,163.708L-315.608,163.708z M-300.863,166.517
			c0.102,0.034,0.272,0.614,0.614,1.89c0.63,2.469,0.919,5.226,0.818,7.797c-0.035,0.716-0.069,1.38-0.102,1.466l-0.052,0.17
			l-0.886-0.289c-1.821-0.578-4.784-1.448-7.321-2.163c-1.447-0.39-2.622-0.747-2.622-0.783c0-0.101,2.111-2.213,3.013-3.014
			C-305.682,170.076-301.017,166.466-300.863,166.517L-300.863,166.517z M-299.689,166.687c0.051-0.051,7.049,1.158,10.232,1.771
			c2.365,0.46,5.804,1.175,6.01,1.261c0.103,0.033-0.257,0.239-1.397,0.748c-4.493,2.026-7.831,3.848-11.151,6.061
			c-0.868,0.579-1.6,1.056-1.618,1.056c-0.017,0-0.034-0.493-0.034-1.09c0-3.233-0.647-6.504-1.839-9.263
			C-299.604,166.96-299.705,166.705-299.689,166.687z M-281.591,170.264c0.053,0.051-0.17,1.43-0.374,2.247
			c-0.613,2.538-2.264,6.3-4.291,9.841c-0.357,0.63-0.68,1.14-0.714,1.158c-0.034,0.017-0.494-0.239-1.023-0.545
			c-1.974-1.158-4.222-2.247-6.674-3.269c-0.681-0.289-1.276-0.529-1.293-0.562c-0.119-0.102,5.362-3.729,8.257-5.465
			C-285.405,172.272-281.658,170.195-281.591,170.264L-281.591,170.264z M-280.297,170.467c0.154,0,3.252,0.851,4.869,1.328
			c4.002,1.192,8.599,2.876,11.595,4.238l1.243,0.562l-0.868,0.204c-7.318,1.685-13.586,3.626-19.631,6.078
			c-0.493,0.203-0.934,0.375-0.97,0.375s0.136-0.392,0.357-0.869c1.824-3.864,2.998-7.899,3.287-11.339
			C-280.398,170.723-280.349,170.467-280.297,170.467L-280.297,170.467z M-311.146,177.55c0.051-0.051,2.417,0.511,3.694,0.868
			c1.941,0.545,6.061,1.925,6.061,2.028c0,0.015-0.46,0.408-1.004,0.886c-2.23,1.855-4.376,3.814-6.947,6.3
			c-0.766,0.732-1.413,1.328-1.447,1.328c-0.034,0-0.051-0.102-0.034-0.239c0.392-2.859,0.305-6.536-0.238-10.266
			C-311.113,177.976-311.164,177.567-311.146,177.55z M-261.415,177.601c0.033,0.035-1.09,1.806-1.807,2.81
			c-1.019,1.464-2.52,3.405-5.906,7.661c-1.788,2.247-3.796,4.785-4.461,5.635c-0.681,0.851-1.243,1.567-1.261,1.567
			c-0.015,0-0.239-0.307-0.475-0.68c-1.907-2.861-4.188-5.364-6.896-7.612c-0.51-0.426-1.071-0.886-1.26-1.022
			c-0.187-0.136-0.34-0.273-0.34-0.29c0-0.051,2.894-1.292,5.09-2.179c3.848-1.566,9.089-3.439,13.023-4.649
			C-263.646,178.197-261.449,177.567-261.415,177.601L-261.415,177.601z M-260.102,177.941c0.065-0.016,0.475,0.186,0.968,0.475
			c4.14,2.368,8.188,5.415,11.393,8.548c0.899,0.886,3.13,3.2,3.096,3.217c0,0-0.783,0.069-1.703,0.136
			c-7.167,0.545-16.342,2.06-25.164,4.189c-0.596,0.136-1.122,0.255-1.157,0.255s0.632-0.662,1.466-1.464
			c5.176-4.988,7.541-8.138,10.334-13.757C-260.478,178.708-260.138,177.993-260.102,177.941
			C-260.121,177.941-260.121,177.941-260.102,177.941L-260.102,177.941z M-298.02,181.824c0.239,0.051,2.453,1.091,4.122,1.924
			c1.531,0.765,3.831,1.993,3.951,2.095c0.015,0.016-0.803,0.443-1.807,0.935c-3.201,1.6-5.942,3.116-8.802,4.854
			c-0.818,0.493-1.498,0.903-1.515,0.903c-0.069,0-0.051-0.07,0.408-0.903c1.533-2.792,2.758-6.131,3.457-9.382
			C-298.14,181.994-298.071,181.824-298.02,181.824L-298.02,181.824z M-300.233,182.232c0.051,0.051-0.529,2.145-0.886,3.286
			c-0.698,2.163-1.872,4.87-3.013,6.912c-0.273,0.475-0.681,1.175-0.902,1.566l-0.427,0.681l-0.953-0.919
			c-1.107-1.073-2.009-1.737-3.167-2.332c-0.46-0.239-0.818-0.444-0.818-0.476c0-0.136,2.912-2.774,5.142-4.682
			C-303.656,184.888-300.285,182.182-300.233,182.232L-300.233,182.232z M-286.697,187.8l0.834,0.546
			c1.907,1.243,4.153,2.894,5.873,4.34c0.97,0.801,2.844,2.486,3.218,2.895l0.204,0.221l-1.378,0.391
			c-7.799,2.162-13.826,4.086-20.858,6.674c-0.783,0.29-1.447,0.53-1.498,0.53c-0.102,0-0.186,0.086,1.567-1.534
			c4.495-4.137,8.478-8.701,11.441-13.144L-286.697,187.8L-286.697,187.8z M-290.257,188.684c0.034,0.034-2.298,3.32-3.694,5.176
			c-1.669,2.213-4.631,5.925-6.674,8.342c-0.851,1.007-1.583,1.841-1.618,1.858c-0.051,0.017-0.068-0.24-0.068-0.632
			c0-2.06-0.528-4.256-1.448-6.131c-0.391-0.783-0.459-0.971-0.374-1.055c0.324-0.29,5.278-3.116,8.411-4.801
			C-293.61,190.319-290.308,188.651-290.257,188.684L-290.257,188.684z M-311.777,193.963c0.051,0,0.443,0.204,0.886,0.443
			c1.09,0.596,2.06,1.26,2.928,1.975c0.033,0.033-0.408,0.391-0.988,0.817c-1.618,1.157-4.068,3.014-5.499,4.154
			c-1.497,1.192-1.55,1.225-1.379,0.971c1.123-1.72,1.685-2.689,2.282-3.934c0.528-1.106,1.056-2.417,1.431-3.558
			C-311.981,194.338-311.811,193.963-311.777,193.963L-311.777,193.963z M-306.04,198.458c0.086-0.017,0.188,0.136,0.647,0.817
			c0.971,1.447,1.72,3.391,1.908,4.955l0.033,0.342l-2.332,0.903c-4.171,1.617-8.019,3.216-10.625,4.407
			c-0.73,0.343-2.008,0.954-2.841,1.363c-0.835,0.427-1.516,0.752-1.516,0.735c0-0.017,0.528-0.408,1.175-0.886
			c5.091-3.697,9.501-7.747,12.804-11.8c0.357-0.426,0.68-0.817,0.715-0.834L-306.04,198.458L-306.04,198.458z M-308.678,199.105
			c0.07,0.068-1.872,2.264-3.2,3.609c-3.287,3.354-6.537,5.976-10.574,8.53c-0.511,0.324-0.97,0.613-1.02,0.647
			c-0.119,0.069,0.033-0.101,1.805-2.025c1.124-1.21,1.975-2.231,2.945-3.491c0.647-0.834,0.766-0.953,1.703-1.617
			C-314.518,202.953-308.746,199.036-308.678,199.105z"/>
	</g>
</g>
<g id="Calque_20_-_copie_3" display="none">
	<g transform="matrix(.569 0 0 .569 199.451 -82.735)" display="inline">
		<path fill="#FFFFFF" d="M-280.79,197.913l-22.525,7.355l-19.596,8.65l-5.483,1.447c-1.396,1.328-2.86,2.674-4.443,4.035
			c-1.737,1.498-3.354,2.861-4.597,3.848c-1.379,1.09-3.422,3.132-4.461,4.426c-1.55,1.941-2.774,4.001-3.303,5.585
			c-0.937,2.861-0.477,5.755,1.328,8.429c2.314,3.405,6.929,6.877,12.31,9.244c2.741,1.212,7.355,2.76,10.829,3.626
			c5.771,1.464,16.941,3.048,23.087,3.287c1.243,0.051,2.912,0.051,2.979,0c0.136-0.086,1.09-1.907,2.196-4.171
			c3.781-7.715,6.505-14.951,7.986-21.131c0.886-3.745,1.584-8.734,2.042-14.643c0.12-1.649,0.17-7.183,0.069-9.055
			c-0.154-3.065-0.426-5.55-0.851-7.988c-0.069-0.357-0.086-0.68-0.051-0.699c0.069-0.051,0.275-0.118,3.048-0.918L-280.79,197.913
			L-280.79,197.913L-280.79,197.913L-280.79,197.913z M-285.932,200.927c0.203,0,0.748,5.227,0.886,8.532
			c0.034,0.697,0.015,1.157-0.017,1.157c-0.136,0-2.876-1.617-4.836-2.842c-1.699-1.074-4.935-3.22-5.447-3.628
			c-0.17-0.118-0.154-0.137,1.243-0.614C-291.738,202.731-286.119,200.927-285.932,200.927z M-297.408,204.707
			c0.154,0,0.545,0.221,1.48,0.8c3.508,2.199,8.276,4.855,10.318,5.738c0.628,0.275,0.697,0.173-0.748,1.158
			c-3.1,2.111-6.965,4.189-11.696,6.283c-0.834,0.374-1.534,0.662-1.55,0.662c-0.033,0,0.069-0.424,0.203-0.935
			c1.14-4.239,1.788-8.532,1.822-11.969c0.017-1.703,0.017-1.703,0.171-1.754C-297.441,204.707-297.425,204.707-297.408,204.707
			L-297.408,204.707z M-299.773,205.61c0.101,0.101,0.033,3.915-0.103,4.953c-0.306,2.487-0.783,4.802-1.565,7.407
			c-0.188,0.63-0.36,1.157-0.392,1.191c-0.068,0.086-2.401-2.197-3.167-3.081c-1.328-1.534-2.368-3.065-3.133-4.565
			c-0.391-0.765-1.004-2.262-0.953-2.314C-308.814,209.015-299.841,205.541-299.773,205.61L-299.773,205.61z M-310.908,209.984
			c0.015,0,0.033,0,0.051,0.017c0.033,0.034,0.154,0.305,0.257,0.613c0.544,1.481,1.769,3.661,2.826,5.058
			c1.158,1.531,2.673,3.167,3.932,4.239c0.408,0.34,0.783,0.664,0.834,0.714c0.103,0.103,0.136,0.086-2.64,1.14
			c-3.215,1.225-6.724,2.453-10.741,3.745c-0.96,0.312-1.921,0.621-2.878,0.937c-0.153,0.051-0.101-0.033,0.342-0.731
			c1.992-3.117,5.024-9.227,6.724-13.552c0.289-0.748,0.579-1.5,0.631-1.668c0.069-0.24,0.154-0.324,0.373-0.443
			C-311.079,210.019-310.96,209.984-310.908,209.984L-310.908,209.984z M-314.313,211.399c0.051,0.034-0.818,1.855-1.669,3.525
			c-1.652,3.216-3.457,6.385-5.874,10.232c-0.408,0.662-0.8,1.277-0.851,1.346c-0.085,0.117-0.118,0.086-0.391-0.443
			c-0.578-1.143-1.056-2.605-1.31-3.951c-0.256-1.328-0.205-3.645,0.085-5.073c0.221-1.057,0.204-1.038,0.716-1.294
			C-321.43,214.632-314.382,211.33-314.313,211.399L-314.313,211.399z M-284.945,212.59v0.714c0,3.798-0.408,9.007-1.004,12.805
			c-0.103,0.664-0.187,1.208-0.204,1.225c0,0-0.494-0.136-1.073-0.307c-2.554-0.8-5.329-1.975-7.831-3.354
			c-1.653-0.903-4.053-2.384-3.983-2.454c0.016-0.014,0.732-0.391,1.565-0.834c3.337-1.733,6.537-3.608,9.313-5.465
			c1.04-0.699,2.605-1.819,2.949-2.128L-284.945,212.59L-284.945,212.59z M-327.168,217.629c0.068,0,0.051,0.137-0.051,0.75
			c-0.068,0.445-0.154,1.261-0.186,1.821c-0.136,2.485,0.273,4.325,1.497,6.845c0.34,0.7,0.613,1.277,0.596,1.294
			c-0.119,0.103-11.39,3.405-14.932,4.377c-1.056,0.288-1.975,0.546-2.043,0.563c-0.118,0.034-0.136,0.017-0.085-0.275
			c0.391-2.501,2.298-5.77,4.956-8.53c1.769-1.836,3.184-2.911,5.6-4.291c1.738-0.987,4.411-2.468,4.614-2.537
			C-327.202,217.629-327.185,217.629-327.168,217.629L-327.168,217.629z M-300.608,222.379c0.015-0.017,0.425,0.203,0.918,0.494
			c3.645,2.111,8.715,4.068,13.04,5.073l0.391,0.082l-0.542,0.309c-2.265,1.26-9.706,4.356-17.317,7.202
			c-1.107,0.408-2.196,0.817-2.399,0.903c-0.205,0.082-0.392,0.137-0.392,0.12s0.307-0.614,0.699-1.346
			c2.128-3.985,4.274-8.839,5.363-12.21C-300.71,222.685-300.625,222.396-300.608,222.379L-300.608,222.379z M-303.315,223.265
			c0.017,0.017-0.119,0.374-0.289,0.783c-1.481,3.592-3.421,7.51-5.907,11.901c-0.631,1.126-1.158,2.029-1.176,2.029
			c-0.016,0-0.529-0.305-1.14-0.681c-3.61-2.212-6.811-4.938-8.904-7.577l-0.307-0.374l1.549-0.426
			c5.55-1.514,10.268-3.151,14.95-5.159C-303.877,223.486-303.332,223.265-303.315,223.265z M-286.495,229.138
			C-286.495,229.138-286.477,229.155-286.495,229.138c0.017,0.391-0.851,3.899-1.565,6.436c-0.597,2.128-1.107,3.796-2.044,6.743
			c-0.407,1.292-0.765,2.365-0.783,2.365c-0.019,0-0.118-0.015-0.221-0.05c-5.056-0.92-9.585-2.197-13.842-3.899
			c-1.192-0.477-2.895-1.243-2.997-1.328c-0.033-0.034,0.989-0.51,2.283-1.073c7.746-3.388,15.782-7.236,18.542-8.887
			C-286.8,229.241-286.544,229.138-286.495,229.138L-286.495,229.138z M-325.33,230.466c0.033,0.034-2.127,3.148-5.159,7.389
			c-1.056,1.483-2.28,3.22-2.741,3.865c-0.459,0.647-1.158,1.67-1.549,2.283l-0.716,1.107l-0.766-0.649
			c-0.902-0.748-2.468-2.348-3.167-3.233c-1.465-1.823-2.453-3.747-2.844-5.501c-0.187-0.817-0.187-1.224-0.017-1.275
			c0.257-0.069,4.801-1.14,9.059-2.128c2.368-0.546,5.109-1.193,6.095-1.431C-326.147,230.655-325.346,230.466-325.33,230.466
			L-325.33,230.466z M-323.15,231.301l0.544,0.614c2.453,2.741,4.955,4.766,7.986,6.536c0.545,0.309,0.953,0.58,0.919,0.597
			c-0.119,0.084-10.522,3.779-15.34,5.449c-2.707,0.953-4.937,1.718-4.954,1.718c-0.015,0-0.171-0.101-0.342-0.221l-0.306-0.221
			l0.494-0.714c1.6-2.314,3.608-4.854,7.984-10.129L-323.15,231.301L-323.15,231.301z M-309.564,241.023
			c0.018-0.017,0.766,0.254,1.686,0.596c2.213,0.834,3.967,1.363,6.317,1.958c2.894,0.731,7.082,1.447,9.55,1.651
			c0.376,0.034,0.58,0.069,0.511,0.12c-0.12,0.067-2.622,0.901-4.461,1.481c-2.928,0.916-11.867,3.558-19.155,5.652
			c-1.346,0.391-2.501,0.716-2.571,0.731c-0.17,0.036-0.732-0.118-0.732-0.187c0-0.034,0.408-0.561,0.902-1.14
			c2.453-2.931,4.886-6.197,6.913-9.297C-310.04,241.737-309.564,241.039-309.564,241.023L-309.564,241.023z M-312.56,241.107
			c0.017,0.017-1.192,1.957-3.303,5.296c-0.904,1.411-1.909,3.01-2.266,3.573c-0.341,0.546-0.85,1.397-1.14,1.874l-0.493,0.867
			l-0.255-0.069c-0.614-0.17-4.921-1.685-6.061-2.145c-1.414-0.561-2.877-1.243-3.967-1.821c-1.362-0.733-3.064-1.823-2.929-1.855
			c0.033-0.017,2.366-0.649,5.175-1.412c7.457-2.025,11.594-3.203,14.303-4.054C-313.003,241.21-312.578,241.09-312.56,241.107
			L-312.56,241.107z M-291.364,246.079h0.015c0.07,0.17-2.688,7.831-3.693,10.25c-0.221,0.544-0.306,0.681-0.425,0.664
			c-0.29-0.017-4.292-0.578-6.726-0.937c-4.239-0.647-11.357-1.891-13.143-2.298l-0.409-0.084l2.538-0.58
			c5.448-1.225,8.07-1.89,10.726-2.707c3.354-1.023,6.675-2.3,10.027-3.865C-291.925,246.284-291.482,246.097-291.364,246.079
			L-291.364,246.079z"/>
		<path fill="#FFFFFF" d="M-304.013,145.405c-0.375-0.051-6.419,2.128-10.317,3.711c-5.262,2.146-9.348,4.189-11.867,5.961
			c-0.935,0.662-2.112,1.837-2.299,2.298c-0.068,0.171-0.102,0.373-0.102,0.578l2.283,2.163l5.431,1.737l12.923,2.314l14.777,2.538
			l0.154-1.278c-0.051,0-0.086-0.016-0.137-0.016l-1.94-0.305l-0.391-0.699c-2.009-3.542-4.223-7.933-5.516-10.897
			c-1.004-2.299-1.957-4.954-2.486-6.862C-303.791,145.49-303.826,145.422-304.013,145.405L-304.013,145.405L-304.013,145.405
			L-304.013,145.405z M-304.286,146.274h0.016c0.016,0.016,0.085,0.493,0.154,1.056c0.288,2.384,0.818,4.682,1.652,7.168
			c0.63,1.872,0.63,1.77-0.102,1.55c-1.736-0.476-9.517-1.823-15.152-2.604c-0.903-0.119-1.669-0.239-1.669-0.255
			c-0.069-0.07,4.068-2.231,5.891-3.082C-311.164,149.032-304.762,146.359-304.286,146.274L-304.286,146.274z M-320.698,153.902
			l0.664,0.221c3.609,1.225,12.684,2.962,17.691,3.371c0.56,0.051,1.038,0.102,1.056,0.102c0.016,0.017-0.459,0.273-1.073,0.562
			c-2.418,1.208-5.073,2.69-6.912,3.831c-0.545,0.342-1.037,0.614-1.107,0.614c-0.068,0-0.426-0.069-0.8-0.12l-0.681-0.102
			l-1.703-1.667c-2.997-2.913-5.346-5.159-6.248-6.01L-320.698,153.902z M-321.379,154.429l2.4,2.997
			c1.31,1.651,2.639,3.269,2.929,3.626c0.287,0.358,0.528,0.648,0.511,0.663c-0.069,0.051-3.474-0.613-5.278-1.02
			c-1.856-0.426-2.622-0.631-3.762-0.989l-0.936-0.305v-0.239c0.016-1.14,1.463-2.843,3.915-4.58L-321.379,154.429L-321.379,154.429
			z M-300.983,158.516c0.069,0,0.153,0.154,0.358,0.612c0.578,1.279,2.383,4.717,2.827,5.381c0.136,0.221,0.373,0.239-2.026-0.154
			c-5.773-0.935-7.628-1.243-7.628-1.276c0-0.017,0.17-0.136,0.392-0.257c1.788-0.987,3.591-2.247,5.193-3.592
			c0.391-0.324,0.748-0.631,0.817-0.681C-301.033,158.516-301,158.499-300.983,158.516L-300.983,158.516z"/>
		<path fill="#FFFFFF" d="M-328.377,157.137c0,0-0.374,0.596-0.017,1.48c0.221,0.545,0.868,1.209,1.6,1.89
			c0,0,7.577,7.389,8.496,8.446c4.188,4.835,6.01,9.602,6.18,16.174c0.1,4.221-0.699,7.933-2.69,12.24
			c-3.542,7.73-11.016,16.26-22.542,25.727l1.685-0.561c1.09-0.819,2.571-1.685,6.046-3.594c8.018-4.392,17.042-8.427,28.108-12.582
			c15.937-5.993,42.137-13.008,57.053-15.289l1.55-0.239l-0.239-0.375c-1.364-2.11-2.298-3.421-3.422-4.818
			c-3.27-4.053-7.236-7.338-12.088-10.063c-6.676-3.729-15.307-6.639-26.238-8.802c-2.06-0.408-6.587-1.192-10.265-1.754
			c-7.798-1.208-12.838-2.042-18.388-2.997c-1.992-0.34-4.971-0.851-6.947-1.276c-1.022-0.222-2.979-0.681-4.512-1.209
			C-326.232,159.06-328.002,158.583-328.377,157.137L-328.377,157.137z M-323.984,161.393c0.016-0.017,0.289,0.084,0.647,0.203
			c0.646,0.221,1.481,0.477,2.469,0.75c0.747,0.205,1.497,0.403,2.247,0.596c1.021,0.255,1.872,0.493,1.89,0.493
			c0.119,0.119,1.838,5.617,2.418,7.728c0.221,0.801,0.391,1.481,0.373,1.481c-0.017,0.017-0.203-0.272-0.427-0.662
			c-1.991-3.507-5.141-7.066-8.785-9.926C-323.626,161.716-323.984,161.409-323.984,161.393L-323.984,161.393z M-315.608,163.708
			c0.086,0,0.46,0.051,0.92,0.153c2.894,0.648,8.087,1.635,11.406,2.197c0.563,0.085,1.006,0.187,1.006,0.221
			c0,0.034-0.205,0.154-0.461,0.29c-0.561,0.288-2.827,1.635-3.575,2.144c-1.89,1.261-3.592,2.622-4.818,3.848
			c-0.493,0.494-0.92,0.903-0.92,0.903s-0.101-0.288-0.186-0.647c-0.614-2.367-1.891-5.874-3.046-8.343
			c-0.188-0.39-0.342-0.747-0.342-0.783C-315.625,163.726-315.625,163.708-315.608,163.708L-315.608,163.708z M-300.863,166.517
			c0.102,0.034,0.272,0.614,0.614,1.89c0.63,2.469,0.919,5.226,0.818,7.797c-0.035,0.716-0.069,1.38-0.102,1.466l-0.052,0.17
			l-0.886-0.289c-1.821-0.578-4.784-1.448-7.321-2.163c-1.447-0.39-2.622-0.747-2.622-0.783c0-0.101,2.111-2.213,3.013-3.014
			C-305.682,170.076-301.017,166.466-300.863,166.517L-300.863,166.517z M-299.689,166.687c0.051-0.051,7.049,1.158,10.232,1.771
			c2.365,0.46,5.804,1.175,6.01,1.261c0.103,0.033-0.257,0.239-1.397,0.748c-4.493,2.026-7.831,3.848-11.151,6.061
			c-0.868,0.579-1.6,1.056-1.618,1.056c-0.017,0-0.034-0.493-0.034-1.09c0-3.233-0.647-6.504-1.839-9.263
			C-299.604,166.96-299.705,166.705-299.689,166.687z M-281.591,170.264c0.053,0.051-0.17,1.43-0.374,2.247
			c-0.613,2.538-2.264,6.3-4.291,9.841c-0.357,0.63-0.68,1.14-0.714,1.158c-0.034,0.017-0.494-0.239-1.023-0.545
			c-1.974-1.158-4.222-2.247-6.674-3.269c-0.681-0.289-1.276-0.529-1.293-0.562c-0.119-0.102,5.362-3.729,8.257-5.465
			C-285.405,172.272-281.658,170.195-281.591,170.264L-281.591,170.264z M-280.297,170.467c0.154,0,3.252,0.851,4.869,1.328
			c4.002,1.192,8.599,2.876,11.595,4.238l1.243,0.562l-0.868,0.204c-7.318,1.685-13.586,3.626-19.631,6.078
			c-0.493,0.203-0.934,0.375-0.97,0.375s0.136-0.392,0.357-0.869c1.824-3.864,2.998-7.899,3.287-11.339
			C-280.398,170.723-280.349,170.467-280.297,170.467L-280.297,170.467z M-311.146,177.55c0.051-0.051,2.417,0.511,3.694,0.868
			c1.941,0.545,6.061,1.925,6.061,2.028c0,0.015-0.46,0.408-1.004,0.886c-2.23,1.855-4.376,3.814-6.947,6.3
			c-0.766,0.732-1.413,1.328-1.447,1.328c-0.034,0-0.051-0.102-0.034-0.239c0.392-2.859,0.305-6.536-0.238-10.266
			C-311.113,177.976-311.164,177.567-311.146,177.55z M-261.415,177.601c0.033,0.035-1.09,1.806-1.807,2.81
			c-1.019,1.464-2.52,3.405-5.906,7.661c-1.788,2.247-3.796,4.785-4.461,5.635c-0.681,0.851-1.243,1.567-1.261,1.567
			c-0.015,0-0.239-0.307-0.475-0.68c-1.907-2.861-4.188-5.364-6.896-7.612c-0.51-0.426-1.071-0.886-1.26-1.022
			c-0.187-0.136-0.34-0.273-0.34-0.29c0-0.051,2.894-1.292,5.09-2.179c3.848-1.566,9.089-3.439,13.023-4.649
			C-263.646,178.197-261.449,177.567-261.415,177.601L-261.415,177.601z M-260.102,177.941c0.065-0.016,0.475,0.186,0.968,0.475
			c4.14,2.368,8.188,5.415,11.393,8.548c0.899,0.886,3.13,3.2,3.096,3.217c0,0-0.783,0.069-1.703,0.136
			c-7.167,0.545-16.342,2.06-25.164,4.189c-0.596,0.136-1.122,0.255-1.157,0.255s0.632-0.662,1.466-1.464
			c5.176-4.988,7.541-8.138,10.334-13.757C-260.478,178.708-260.138,177.993-260.102,177.941
			C-260.121,177.941-260.121,177.941-260.102,177.941L-260.102,177.941z M-298.02,181.824c0.239,0.051,2.453,1.091,4.122,1.924
			c1.531,0.765,3.831,1.993,3.951,2.095c0.015,0.016-0.803,0.443-1.807,0.935c-3.201,1.6-5.942,3.116-8.802,4.854
			c-0.818,0.493-1.498,0.903-1.515,0.903c-0.069,0-0.051-0.07,0.408-0.903c1.533-2.792,2.758-6.131,3.457-9.382
			C-298.14,181.994-298.071,181.824-298.02,181.824L-298.02,181.824z M-300.233,182.232c0.051,0.051-0.529,2.145-0.886,3.286
			c-0.698,2.163-1.872,4.87-3.013,6.912c-0.273,0.475-0.681,1.175-0.902,1.566l-0.427,0.681l-0.953-0.919
			c-1.107-1.073-2.009-1.737-3.167-2.332c-0.46-0.239-0.818-0.444-0.818-0.476c0-0.136,2.912-2.774,5.142-4.682
			C-303.656,184.888-300.285,182.182-300.233,182.232L-300.233,182.232z M-286.697,187.8l0.834,0.546
			c1.907,1.243,4.153,2.894,5.873,4.34c0.97,0.801,2.844,2.486,3.218,2.895l0.204,0.221l-1.378,0.391
			c-7.799,2.162-13.826,4.086-20.858,6.674c-0.783,0.29-1.447,0.53-1.498,0.53c-0.102,0-0.186,0.086,1.567-1.534
			c4.495-4.137,8.478-8.701,11.441-13.144L-286.697,187.8L-286.697,187.8z M-290.257,188.684c0.034,0.034-2.298,3.32-3.694,5.176
			c-1.669,2.213-4.631,5.925-6.674,8.342c-0.851,1.007-1.583,1.841-1.618,1.858c-0.051,0.017-0.068-0.24-0.068-0.632
			c0-2.06-0.528-4.256-1.448-6.131c-0.391-0.783-0.459-0.971-0.374-1.055c0.324-0.29,5.278-3.116,8.411-4.801
			C-293.61,190.319-290.308,188.651-290.257,188.684L-290.257,188.684z M-311.777,193.963c0.051,0,0.443,0.204,0.886,0.443
			c1.09,0.596,2.06,1.26,2.928,1.975c0.033,0.033-0.408,0.391-0.988,0.817c-1.618,1.157-4.068,3.014-5.499,4.154
			c-1.497,1.192-1.55,1.225-1.379,0.971c1.123-1.72,1.685-2.689,2.282-3.934c0.528-1.106,1.056-2.417,1.431-3.558
			C-311.981,194.338-311.811,193.963-311.777,193.963L-311.777,193.963z M-306.04,198.458c0.086-0.017,0.188,0.136,0.647,0.817
			c0.971,1.447,1.72,3.391,1.908,4.955l0.033,0.342l-2.332,0.903c-4.171,1.617-8.019,3.216-10.625,4.407
			c-0.73,0.343-2.008,0.954-2.841,1.363c-0.835,0.427-1.516,0.752-1.516,0.735c0-0.017,0.528-0.408,1.175-0.886
			c5.091-3.697,9.501-7.747,12.804-11.8c0.357-0.426,0.68-0.817,0.715-0.834L-306.04,198.458L-306.04,198.458z M-308.678,199.105
			c0.07,0.068-1.872,2.264-3.2,3.609c-3.287,3.354-6.537,5.976-10.574,8.53c-0.511,0.324-0.97,0.613-1.02,0.647
			c-0.119,0.069,0.033-0.101,1.805-2.025c1.124-1.21,1.975-2.231,2.945-3.491c0.647-0.834,0.766-0.953,1.703-1.617
			C-314.518,202.953-308.746,199.036-308.678,199.105z"/>
	</g>
</g>
</svg>
