<?xml version="1.0" encoding="utf-8"?>
<!-- Generator: Adobe Illustrator 14.0.0, SVG Export Plug-In . SVG Version: 6.00 Build 43363)  -->
<!DOCTYPE svg PUBLIC "-//W3C//DTD SVG 1.1//EN" "http://www.w3.org/Graphics/SVG/1.1/DTD/svg11.dtd">
<svg version="1.1" id="Calque_1" xmlns="http://www.w3.org/2000/svg" xmlns:xlink="http://www.w3.org/1999/xlink" x="0px" y="0px"
	 width="64px" height="64px" viewBox="0 0 64 64" enable-background="new 0 0 64 64" xml:space="preserve">
<path fill="#FFFFFF" d="M60.479,44.018c-4.375,0-8.604-0.712-12.549-1.99c-1.247-0.427-2.632-0.107-3.591,0.854l-5.583,7
	c-10.064-4.799-19.486-13.864-24.498-24.281l6.932-5.903c0.96-0.995,1.245-2.382,0.854-3.626c-1.316-3.946-1.991-8.177-1.991-12.552
	C20.054,1.601,18.453,0,16.533,0H4.231C2.311,0,0,0.853,0,3.519C0,36.549,27.484,64,60.479,64C63.007,64,64,61.761,64,59.806V47.538
	C64,45.618,62.399,44.018,60.479,44.018z"/>
</svg>
